<?xml version="1.0" encoding="UTF-8"?>
<svg version="1.1" xmlns="http://www.w3.org/2000/svg" width="2084" height="2084">
<path d="M0 0 C687.72 0 1375.44 0 2084 0 C2084 687.72 2084 1375.44 2084 2084 C1396.28 2084 708.56 2084 0 2084 C0 1396.28 0 708.56 0 0 Z " fill="#23442C" transform="translate(0,0)"/>
<path d="M0 0 C4.42660705 3.46880319 7.86446909 7.02579347 11.25 11.5 C11.72397217 12.11673584 12.19794434 12.73347168 12.6862793 13.36889648 C13.66156375 14.6384716 14.63447783 15.90987125 15.60498047 17.18310547 C16.86562115 18.82498295 18.15205319 20.4469788 19.44140625 22.06640625 C64.30676261 78.75788619 92.39568846 149.26183196 100 221 C100.09643799 221.86584717 100.19287598 222.73169434 100.29223633 223.6237793 C101.2613799 233.45933516 101.20025956 243.31443884 101.1875 253.1875 C101.18656342 254.1216272 101.18562683 255.05575439 101.18466187 256.01818848 C101.1300712 281.16646876 98.64861702 305.29130401 94 330 C93.84837402 330.81839355 93.69674805 331.63678711 93.54052734 332.47998047 C88.02871931 361.2786776 76.77680577 391.11813459 63.08349609 416.93457031 C61.87825738 419.23207358 60.71392894 421.54810264 59.55078125 423.8671875 C50.08045369 442.58612927 38.85200677 459.97734655 26.25390625 476.73828125 C25.73199707 477.43518066 25.21008789 478.13208008 24.67236328 478.85009766 C23.4766774 480.38720858 22.23484216 481.8888605 20.96435547 483.36474609 C20.3045166 484.14543457 19.64467773 484.92612305 18.96484375 485.73046875 C18.35116943 486.42938232 17.73749512 487.1282959 17.10522461 487.84838867 C15.68861972 490.01255938 15.68861972 490.01255938 16.70581055 492.61669922 C18.18722208 495.34477682 19.87540902 497.5606968 21.875 499.9375 C23.0815625 501.37416016 23.0815625 501.37416016 24.3125 502.83984375 C24.74691406 503.35015137 25.18132812 503.86045898 25.62890625 504.38623047 C27.05388041 506.06341693 28.46474039 507.75183584 29.875 509.44140625 C38.51968469 519.73445386 47.64573911 529.39122008 58 538 C58.53157715 538.44537109 59.0631543 538.89074219 59.61083984 539.34960938 C67.47935988 545.92336348 75.51082652 552.27147393 83.75 558.375 C84.893479 559.2414917 84.893479 559.2414917 86.06005859 560.12548828 C87.13634521 560.91028564 87.13634521 560.91028564 88.234375 561.7109375 C88.86569336 562.17806152 89.49701172 562.64518555 90.14746094 563.12646484 C91.97160048 564.18413692 91.97160048 564.18413692 94.04980469 563.77319336 C97.25307872 562.50319225 99.80056827 560.28378307 102.5 558.1875 C148.12824097 523.85606516 207.12322574 504.20887096 264.18359375 503.76171875 C265.22496994 503.75197021 266.26634613 503.74222168 267.33927917 503.73217773 C341.99147989 503.17822649 410.26012875 518.79751535 473.37792969 559.9753418 C475.02906979 561.05602999 475.02906979 561.05602999 477 562 C468.99758532 584.8992174 437.85020373 599.92823429 417.70263672 609.74511719 C410.78585803 612.95670187 403.65978613 615.60202075 396.46972656 618.12988281 C394.14606557 618.94853918 391.83475949 619.79570678 389.5234375 620.6484375 C377.29267788 625.055361 364.76334772 627.63797795 352 630 C350.99066406 630.18836426 349.98132812 630.37672852 348.94140625 630.57080078 C341.97998229 631.85086957 335.00569767 632.99018063 328 634 C327.17580566 634.12004395 326.35161133 634.24008789 325.50244141 634.36376953 C290.14265028 639.21282325 252.26578221 637.45720995 217.72851562 628.69140625 C214.93288416 627.98299284 212.13121027 627.3032585 209.328125 626.625 C172.07216211 617.44544453 135.66439101 602.05780964 103.13916016 581.69360352 C102.38425293 581.22237061 101.6293457 580.7511377 100.8515625 580.265625 C100.20010254 579.85086914 99.54864258 579.43611328 98.87744141 579.00878906 C96.8529452 577.92098434 95.29022897 577.25221906 93 577 C90.53520443 578.75327724 88.40809399 580.47492445 86.1875 582.5 C85.56020996 583.05518311 84.93291992 583.61036621 84.28662109 584.18237305 C80.5833829 587.48425847 76.99083303 590.87258924 73.55078125 594.44921875 C71.88209941 596.11790059 70.12185068 597.61045188 68.3125 599.125 C62.95990794 603.74534921 58.31642358 609.03849832 53.57763672 614.26953125 C52.02424807 615.97340292 50.45519149 617.66105932 48.87890625 619.34375 C43.40491351 625.19418274 38.16505215 631.13594408 33.14453125 637.38671875 C31.00125044 639.99847623 28.7761967 642.50365302 26.5 645 C23.38541332 648.41739372 20.4081338 651.9052235 17.5 655.5 C11.99213267 662.30043164 6.23167362 668.85234895 0 675 C-0.72703125 674.15179687 -1.4540625 673.30359375 -2.203125 672.4296875 C-2.92254272 671.59038696 -2.92254272 671.59038696 -3.65649414 670.73413086 C-4.73385877 669.47717795 -5.8111685 668.22017799 -6.88842773 666.96313477 C-9.61837748 663.77773215 -12.34902212 660.59293455 -15.08203125 657.41015625 C-16.0755848 656.25265907 -17.06907486 655.09510739 -18.0625 653.9375 C-18.80415405 653.07342529 -18.80415405 653.07342529 -19.56079102 652.19189453 C-22.48895666 648.77610006 -25.3986085 645.34553336 -28.2956543 641.90332031 C-32.76269815 636.59708965 -37.30683358 631.37541245 -41.97265625 626.2421875 C-43.73967199 624.28791576 -45.46913529 622.30940263 -47.1875 620.3125 C-50.70616789 616.27468439 -54.34964058 612.35588109 -58 608.4375 C-58.87241333 607.49934448 -58.87241333 607.49934448 -59.76245117 606.54223633 C-64.90644237 601.03974862 -70.07639441 595.51946481 -75.8125 590.625 C-78.11285575 588.65198532 -80.36916561 586.6570045 -82.58984375 584.59375 C-83.46769531 583.7790625 -84.34554688 582.964375 -85.25 582.125 C-86.05953125 581.36445312 -86.8690625 580.60390625 -87.703125 579.8203125 C-90.02548953 577.97979911 -91.11739648 577.37004804 -94 577 C-95.90359059 577.66752836 -95.90359059 577.66752836 -97.73828125 578.88671875 C-98.46418457 579.32459717 -99.19008789 579.76247559 -99.93798828 580.21362305 C-100.72157715 580.70000244 -101.50516602 581.18638184 -102.3125 581.6875 C-132.72299369 599.91899072 -164.30707424 613.18364115 -198 624 C-199.22589844 624.40089844 -200.45179688 624.80179688 -201.71484375 625.21484375 C-227.27013693 633.08044079 -254.54871202 636.22118756 -281.1875 636.25 C-281.93079559 636.25133942 -282.67409119 636.25267883 -283.43991089 636.25405884 C-306.62113341 636.24515444 -330.27295119 634.73958666 -353 630 C-353.79954102 629.84337891 -354.59908203 629.68675781 -355.42285156 629.52539062 C-377.7412634 625.124102 -399.57234987 618.04210316 -420 608 C-420.70237793 607.66033203 -421.40475586 607.32066406 -422.12841797 606.97070312 C-437.52764429 599.45478898 -451.7070256 589.98944417 -464 578 C-465.23556641 576.82244141 -465.23556641 576.82244141 -466.49609375 575.62109375 C-470.2637115 571.9619834 -473.52637573 568.68360207 -476 564 C-476 563.34 -476 562.68 -476 562 C-474.43383789 560.83007812 -474.43383789 560.83007812 -472.22265625 559.53125 C-471.40804932 559.04769043 -470.59344238 558.56413086 -469.75415039 558.06591797 C-468.86590576 557.54916504 -467.97766113 557.03241211 -467.0625 556.5 C-466.15169678 555.96391113 -465.24089355 555.42782227 -464.30249023 554.87548828 C-462.42842572 553.77282849 -460.5528434 552.67274445 -458.67578125 551.57519531 C-456.31155652 550.183409 -453.96475248 548.76832787 -451.625 547.3359375 C-435.28327395 537.38769716 -417.98643673 529.48263828 -400 523 C-399.36433105 522.76974121 -398.72866211 522.53948242 -398.07373047 522.30224609 C-375.2851104 514.14335743 -351.41017617 509.30589167 -327.4375 506.25 C-326.08555542 506.07670166 -326.08555542 506.07670166 -324.70629883 505.89990234 C-309.15850181 504.05394284 -293.57567848 503.79545988 -277.9375 503.8125 C-276.99456085 503.81277191 -276.0516217 503.81304382 -275.08010864 503.81332397 C-260.63875544 503.83243499 -246.34012135 504.12388479 -232 506 C-231.22124512 506.10183594 -230.44249023 506.20367188 -229.64013672 506.30859375 C-224.38931551 507.03084638 -219.19803016 507.96902232 -214 509 C-213.1951416 509.15275391 -212.3902832 509.30550781 -211.56103516 509.46289062 C-187.76731842 514.05249516 -164.71832778 522.30428759 -143 533 C-142.22575684 533.37560059 -141.45151367 533.75120117 -140.65380859 534.13818359 C-129.14394324 539.76813841 -118.47969654 546.38534375 -107.90234375 553.60546875 C-107.09909668 554.15251465 -106.29584961 554.69956055 -105.46826172 555.26318359 C-103.72825847 556.48755383 -102.01850694 557.75547837 -100.33251953 559.05322266 C-99.02516846 560.04201416 -99.02516846 560.04201416 -97.69140625 561.05078125 C-96.52073608 561.96790894 -96.52073608 561.96790894 -95.32641602 562.90356445 C-93.02172485 564.29038876 -93.02172485 564.29038876 -90.46630859 563.36157227 C-88.13340657 562.07364962 -85.99507708 560.7403797 -83.84765625 559.1640625 C-82.69342163 558.31871948 -82.69342163 558.31871948 -81.51586914 557.45629883 C-80.70625732 556.85197021 -79.89664551 556.2476416 -79.0625 555.625 C-78.22001709 554.99940186 -77.37753418 554.37380371 -76.50952148 553.72924805 C-69.04920697 548.13560549 -61.93687872 542.22638578 -55 536 C-54.47325684 535.52965332 -53.94651367 535.05930664 -53.40380859 534.57470703 C-42.77222833 525.05393793 -32.8284086 515.2417106 -24 504 C-23.12336878 502.93669712 -22.24573893 501.87421687 -21.3671875 500.8125 C-20.51448085 499.75091801 -19.66288904 498.68843943 -18.8125 497.625 C-18.03519531 496.66851563 -17.25789063 495.71203125 -16.45703125 494.7265625 C-14.73146342 492.15768612 -14.73146342 492.15768612 -15.375 489.640625 C-17.6866895 485.88412957 -20.40516511 482.54147128 -23.1875 479.125 C-47.78573465 448.15454749 -67.09734335 411.95548358 -80.08447266 374.62646484 C-80.9240991 372.2177445 -81.79171859 369.8213574 -82.66796875 367.42578125 C-87.26475101 354.58544578 -90.17256259 341.32431105 -93 328 C-93.25257568 326.82332764 -93.50515137 325.64665527 -93.76538086 324.43432617 C-95.68194969 315.23007845 -97.12418918 306.02274924 -98.1875 296.6875 C-98.27371613 295.93098145 -98.35993225 295.17446289 -98.44876099 294.39501953 C-101.5420038 266.36991344 -101.33504865 237.78489043 -97.39697266 209.86035156 C-97.03911816 207.28186244 -96.73367241 204.70459084 -96.44921875 202.1171875 C-93.34442138 175.92097712 -85.41509965 149.5370604 -76 125 C-75.62343262 124.01837891 -75.24686523 123.03675781 -74.85888672 122.02539062 C-70.47828349 110.74014903 -65.68487934 99.7418424 -60.05664062 89.0234375 C-58.93118603 86.86822315 -57.83210488 84.700706 -56.734375 82.53125 C-41.48085561 52.6483323 -22.13306751 25.16390198 0 0 Z " fill="#C79747" transform="translate(1043,647)"/>
<path d="M0 0 C5.45330355 4.09834163 9.23092409 8.89453596 13.25 14.375 C13.90967773 15.26622559 14.56935547 16.15745117 15.24902344 17.07568359 C20.75238475 24.55987895 26.02337412 32.15651459 31 40 C31.42168457 40.66080566 31.84336914 41.32161133 32.27783203 42.00244141 C70.36370625 102.01270344 93.18908763 170.57597079 93.25 241.9375 C93.25100708 242.76404083 93.25201416 243.59058167 93.25305176 244.44216919 C93.23361108 268.26013821 90.67534866 291.63724077 86 315 C85.8654541 315.70705078 85.7309082 316.41410156 85.59228516 317.14257812 C82.63137725 332.49876969 77.11490715 347.25754208 72 362 C71.71366699 362.8348291 71.42733398 363.6696582 71.13232422 364.52978516 C56.25669056 407.62434662 31.21740631 447.09043472 1 481 C-3.09089352 477.99609434 -6.13747102 474.57499732 -9.1875 470.5625 C-9.66525879 469.94197754 -10.14301758 469.32145508 -10.63525391 468.68212891 C-11.62038844 467.40213745 -12.60346481 466.1205593 -13.58447266 464.83740234 C-14.86480272 463.17549064 -16.17117697 461.53372332 -17.48046875 459.89453125 C-32.73985508 440.65227084 -45.44088382 419.07848 -56.05273438 396.95947266 C-57.00082591 394.99829157 -57.97487669 393.05175503 -58.953125 391.10546875 C-64.58552629 379.7268242 -68.81184491 367.91194929 -72.96850586 355.92773438 C-73.95901173 353.11633878 -75.00154921 350.32895716 -76.05078125 347.5390625 C-101.39952345 277.92033024 -97.51607045 191.67368543 -71 123 C-70.51358032 121.72684937 -70.51358032 121.72684937 -70.01733398 120.42797852 C-53.32656683 77.00623006 -30.96233335 35.03632458 0 0 Z " fill="#22432A" transform="translate(1043,660)"/>
<path d="M0 0 C82.99810612 -2.82099817 166.78484614 24.82040149 228.23266602 81.49243164 C238.4959265 91.08366352 248.41886223 100.8503584 257 112 C258.0150962 113.28687563 259.03076379 114.57330067 260.046875 115.859375 C292.95885716 157.83131484 323.80843736 219.26879084 323 274 C322.01 274 321.02 274 320 274 C320 275.32 320 276.64 320 278 C302.54708746 278.22047212 285.34338674 278.22003688 268 276 C267.18015625 275.90348145 266.3603125 275.80696289 265.515625 275.70751953 C230.64397013 271.5854625 197.41034519 261.64604167 166 246 C165.21882812 245.61489258 164.43765625 245.22978516 163.6328125 244.83300781 C147.03025167 236.58270017 131.39953815 226.67425643 117 215 C116.07058594 214.26265625 115.14117188 213.5253125 114.18359375 212.765625 C98.07270356 199.8402451 82.68241239 185.32889262 70 169 C69.14653528 167.94629032 68.2909611 166.89428669 67.43359375 165.84375 C46.31810439 139.7813332 31.56975229 110.93149734 19 80 C18.65018066 79.13971191 18.30036133 78.27942383 17.93994141 77.39306641 C11.00961687 60.10814719 6.20162996 42.0102602 2.625 23.75 C2.3916394 22.5746167 2.3916394 22.5746167 2.15356445 21.37548828 C0.85585544 14.29855941 0.42637512 7.1749529 0 0 Z " fill="#26462D" transform="translate(628,863)"/>
<path d="M0 0 C-0.40774101 2.81403078 -0.8261813 5.62587799 -1.25 8.4375 C-1.41435547 9.5831543 -1.41435547 9.5831543 -1.58203125 10.75195312 C-3.83510185 25.51549468 -7.91970497 39.69334657 -12.6875 53.8125 C-12.95044861 54.59681396 -13.21339722 55.38112793 -13.48431396 56.18920898 C-17.34842276 67.67676874 -21.50175482 78.88914693 -26.89355469 89.76220703 C-28.06404306 92.12952751 -29.19300183 94.5141881 -30.3203125 96.90234375 C-42.55582992 122.47395407 -58.65604763 145.60738696 -77.74609375 166.5234375 C-79.2742196 168.20252205 -80.78685858 169.89580823 -82.28515625 171.6015625 C-86.28261151 176.14069695 -90.31876354 180.36072741 -94.94921875 184.25390625 C-96.33652588 185.43509917 -97.69324744 186.65302032 -99.01953125 187.90234375 C-123.16101354 210.60632972 -153.36345964 227.71366745 -184 240 C-184.68852051 240.28149902 -185.37704102 240.56299805 -186.08642578 240.85302734 C-218.66921239 254.04322053 -254.19738153 260.26447747 -289.25 260.0625 C-290.78515478 260.05747043 -292.32031116 260.05291012 -293.85546875 260.04882812 C-297.5703467 260.03794839 -301.28516259 260.02076577 -305 260 C-302.97114095 242.68380066 -302.97114095 242.68380066 -301.1875 235.1875 C-300.93093628 234.07930908 -300.93093628 234.07930908 -300.66918945 232.94873047 C-300.12510172 230.62933986 -299.56484784 228.31441531 -299 226 C-298.81566406 225.23284668 -298.63132812 224.46569336 -298.44140625 223.67529297 C-283.73077155 163.01928801 -248.78938568 104.41508636 -199 66 C-198.0203125 65.21496094 -197.040625 64.42992187 -196.03125 63.62109375 C-187.42841935 56.77578714 -178.33735365 50.79141729 -169 45 C-167.95537598 44.3498291 -167.95537598 44.3498291 -166.88964844 43.68652344 C-135.84376678 24.50642138 -100.77161584 11.90458293 -65 5 C-64.28215332 4.86110352 -63.56430664 4.72220703 -62.82470703 4.57910156 C-41.90386341 0.62475042 -21.26615282 -0.32868861 0 0 Z " fill="#1C3E25" transform="translate(1450,872)"/>
<path d="M0 0 C0.91935333 -0.00067474 1.83870667 -0.00134949 2.78591919 -0.00204468 C34.71340574 0.03487688 66.38607314 3.53772538 97.1875 12.25 C97.94514648 12.46237305 98.70279297 12.67474609 99.48339844 12.89355469 C130.10988529 21.56188969 161.74453931 33.68208288 187.1875 53.25 C179.45879352 72.22046136 146.7054395 85.86378651 129.48681641 93.43798828 C123.47043257 95.95405277 117.36268282 98.15836927 111.1875 100.25 C110.2912793 100.55776367 109.39505859 100.86552734 108.47167969 101.18261719 C86.16371363 108.73434111 63.11565504 112.41374518 39.7565918 114.96801758 C38.14459638 115.14494951 36.53375785 115.33317276 34.92504883 115.5378418 C-20.71347812 122.13216972 -77.32026955 107.83909711 -127.8125 85.25 C-128.71258789 84.84813477 -129.61267578 84.44626953 -130.54003906 84.03222656 C-146.20261816 76.96670106 -161.62494609 68.98519959 -175.8125 59.25 C-174.40138362 55.84488492 -172.88039681 54.28988695 -169.83203125 52.25390625 C-169.01001221 51.7019458 -168.18799316 51.14998535 -167.34106445 50.58129883 C-166.44476318 49.99759521 -165.54846191 49.4138916 -164.625 48.8125 C-163.21963989 47.89150513 -163.21963989 47.89150513 -161.78588867 46.9519043 C-112.71622447 15.17938834 -58.31463791 0.03872372 0 0 Z " fill="#1A3C22" transform="translate(1320.8125,1158.75)"/>
<path d="M0 0 C0.71687988 0.33499512 1.43375977 0.66999023 2.17236328 1.01513672 C16.29127277 7.66887567 29.69539305 15.54890329 42.5625 24.375 C43.67999634 25.12475098 43.67999634 25.12475098 44.82006836 25.88964844 C45.49948486 26.36692383 46.17890137 26.84419922 46.87890625 27.3359375 C47.4829126 27.75407715 48.08691895 28.1722168 48.70922852 28.60302734 C50 30 50 30 50 34 C14.67672067 54.42622853 -20.59610016 70.05650562 -60 81 C-60.72171387 81.20608887 -61.44342773 81.41217773 -62.18701172 81.62451172 C-83.93421478 87.81098315 -106.70358022 90.21839619 -129.25 90.1875 C-130.37216415 90.18709213 -130.37216415 90.18709213 -131.51699829 90.18667603 C-144.43623428 90.16518151 -157.16277238 89.51419363 -170 88 C-170.95938477 87.89284668 -171.91876953 87.78569336 -172.90722656 87.67529297 C-184.98077445 86.31419559 -196.82926002 84.51603359 -208.62451172 81.58447266 C-211.19354224 80.95238026 -213.77009761 80.35802306 -216.34765625 79.76171875 C-247.21781609 72.39821885 -277.92059768 58.99630218 -302 38 C-303.17755859 37.02160156 -303.17755859 37.02160156 -304.37890625 36.0234375 C-307.74771625 33.19098544 -310.21521388 31.09346468 -312 27 C-228.19692406 -28.3885955 -119.40278528 -41.20219601 0 0 Z " fill="#23432B" transform="translate(891,1185)"/>
<path d="M0 0 C4.25509871 2.0207906 6.10732846 4.30380858 9 8 C10.1446875 6.8553125 10.1446875 6.8553125 11.3125 5.6875 C13.20833333 3.79166667 15.10416667 1.89583333 17 0 C20.86515068 1.28838356 22.20508316 3.64337218 24.5 6.8125 C28.8386322 12.63529486 33.50523734 17.98824984 38.46875 23.28125 C40.60815518 25.57912963 42.6601899 27.91658807 44.6875 30.3125 C47.50023566 33.55080323 50.52830107 36.34179176 53.80078125 39.109375 C56.2480876 41.21327602 58.58363917 43.41714264 60.9375 45.625 C71.53647463 55.29527449 83.34027913 63.66443281 95 72 C93.77335359 75.67993923 92.4825158 76.38524229 89.421875 78.71484375 C82.21527184 84.47150817 75.79616919 90.93840812 69.31005859 97.48413086 C67.24502676 99.56751744 65.17200604 101.64269165 63.09765625 103.71679688 C61.75733884 105.06202824 60.41747909 106.40771577 59.078125 107.75390625 C58.47067444 108.36246964 57.86322388 108.97103302 57.23736572 109.59803772 C52.97142303 113.91053467 48.95020126 118.39769322 45 123 C44.48548279 123.59711792 43.97096558 124.19423584 43.44085693 124.80944824 C42.06141391 126.41181169 40.68640402 128.01788543 39.3125 129.625 C38.27089101 130.84249726 37.22922259 132.05994368 36.1875 133.27734375 C35.6615625 133.89206543 35.135625 134.50678711 34.59375 135.14013672 C33.02376312 136.97226908 31.45002569 138.80110477 29.875 140.62890625 C28.85399423 141.81495574 27.83315883 143.00115193 26.8125 144.1875 C26.0687915 145.05157471 26.0687915 145.05157471 25.31005859 145.93310547 C21.38718912 150.50827056 17.58872001 155.17136922 13.83984375 159.890625 C12 162 12 162 9 164 C3.62371536 158.14073944 -1.54423716 152.16564019 -6.55078125 145.98828125 C-13.40150396 137.62974397 -20.49211854 129.46573813 -27.76953125 121.4765625 C-29.62659884 119.41459954 -31.45333023 117.33267588 -33.2734375 115.23828125 C-42.5954821 104.56815623 -52.28352148 94.27826045 -63 85 C-65.00890591 83.17636512 -67.00394023 81.33767854 -69 79.5 C-72.25375834 76.39237304 -72.25375834 76.39237304 -76 74 C-74.89211814 70.67635442 -74.42044772 70.32579213 -71.640625 68.46875 C-70.94316162 67.99332764 -70.24569824 67.51790527 -69.52709961 67.02807617 C-68.77565674 66.52381104 -68.02421387 66.0195459 -67.25 65.5 C-59.39813384 60.10168722 -52.14503441 54.29204576 -45 48 C-44.2884375 47.38769531 -43.576875 46.77539062 -42.84375 46.14453125 C-40.8780709 44.44873022 -38.9367077 42.72881253 -37 41 C-36.09894531 40.20335937 -35.19789063 39.40671875 -34.26953125 38.5859375 C-21.22738583 26.94101173 -10.39586721 14.0374575 0 0 Z " fill="#1E3F26" transform="translate(1034,1145)"/>
<path d="M0 0 C82.99810612 -2.82099817 166.78484614 24.82040149 228.23266602 81.49243164 C238.4959265 91.08366352 248.41886223 100.8503584 257 112 C258.0150962 113.28687563 259.03076379 114.57330067 260.046875 115.859375 C292.95885716 157.83131484 323.80843736 219.26879084 323 274 C322.01 274 321.02 274 320 274 C320 275.32 320 276.64 320 278 C302.54708746 278.22047212 285.34338674 278.22003688 268 276 C267.18015625 275.90348145 266.3603125 275.80696289 265.515625 275.70751953 C230.64397013 271.5854625 197.41034519 261.64604167 166 246 C165.21882812 245.61489258 164.43765625 245.22978516 163.6328125 244.83300781 C147.03025167 236.58270017 131.39953815 226.67425643 117 215 C116.07058594 214.26265625 115.14117188 213.5253125 114.18359375 212.765625 C98.07270356 199.8402451 82.68241239 185.32889262 70 169 C69.14653528 167.94629032 68.2909611 166.89428669 67.43359375 165.84375 C46.31810439 139.7813332 31.56975229 110.93149734 19 80 C18.65018066 79.13971191 18.30036133 78.27942383 17.93994141 77.39306641 C11.00961687 60.10814719 6.20162996 42.0102602 2.625 23.75 C2.3916394 22.5746167 2.3916394 22.5746167 2.15356445 21.37548828 C0.85585544 14.29855941 0.42637512 7.1749529 0 0 Z M10 9 C10.37023708 27.30882075 16.05072245 45.78987287 22 63 C22.28069336 63.82000488 22.56138672 64.64000977 22.85058594 65.48486328 C32.30629913 92.89642551 44.57660131 119.05046862 61 143 C61.4213623 143.61955566 61.84272461 144.23911133 62.27685547 144.87744141 C67.91568028 153.12760797 74.00922598 160.86337291 80.58959961 168.38500977 C81.5836687 169.52327652 82.57084248 170.66758327 83.55297852 171.81616211 C95.38475624 185.56177756 108.35958371 198.28794386 123 209 C123.96550781 209.74894531 124.93101562 210.49789063 125.92578125 211.26953125 C159.47026865 237.18820825 198.61700307 254.28737738 240 263 C240.86189941 263.18546387 241.72379883 263.37092773 242.61181641 263.56201172 C266.453746 268.63712036 289.73056374 269.29577451 314 269 C309.12739951 214.28520417 285.60093773 160.43719476 251 118 C250.5870166 117.48550293 250.1740332 116.97100586 249.74853516 116.44091797 C243.12280468 108.22701619 235.87213611 100.67133736 228.4375 93.1875 C227.57535889 92.31609375 226.71321777 91.4446875 225.82495117 90.546875 C208.75387442 73.55822038 188.86494764 59.87954431 168 48 C167.36739258 47.63213379 166.73478516 47.26426758 166.08300781 46.88525391 C119.4941904 19.8740642 63.43042578 7.70104313 10 9 Z " fill="#C69647" transform="translate(628,863)"/>
<path d="M0 0 C-0.22698791 13.06212217 -2.96860448 25.33776998 -6 38 C-6.18546387 38.79889648 -6.37092773 39.59779297 -6.56201172 40.42089844 C-12.20369193 64.56374084 -21.01152358 87.81072881 -32 110 C-32.62624268 111.27109619 -32.62624268 111.27109619 -33.26513672 112.56787109 C-48.21647979 142.63068666 -68.03507002 169.09155643 -91.625 192.875 C-92.91289429 194.17703369 -92.91289429 194.17703369 -94.22680664 195.50537109 C-100.17486251 201.42338914 -106.42115086 206.79666937 -113 212 C-113.60859863 212.48823242 -114.21719727 212.97646484 -114.84423828 213.47949219 C-142.76595718 235.78512806 -174.2705601 251.54545651 -208 263 C-208.98363525 263.34321289 -209.96727051 263.68642578 -210.98071289 264.04003906 C-218.01146634 266.45791695 -225.05566534 268.38816225 -232.3125 270 C-233.45460938 270.25418701 -234.59671875 270.50837402 -235.7734375 270.77026367 C-249.72214771 273.74677849 -263.82956983 275.45980386 -278 277 C-278.92272705 277.10675049 -279.8454541 277.21350098 -280.79614258 277.32348633 C-288.75385607 278.16498996 -296.69390364 278.1131953 -304.6875 278.0625 C-306.08268067 278.05747028 -307.47786311 278.05291 -308.87304688 278.04882812 C-312.24874437 278.03714751 -315.62434826 278.02076833 -319 278 C-319 276.68 -319 275.36 -319 274 C-320.32 274 -321.64 274 -323 274 C-321.84830054 262.3011581 -319.99485156 250.87923317 -317.51464844 239.38867188 C-317.18867198 237.87569577 -316.86830395 236.36149125 -316.55566406 234.84570312 C-309.00814137 198.27595113 -292.65692059 161.46580375 -271 131 C-270.48775879 130.27876953 -269.97551758 129.55753906 -269.44775391 128.81445312 C-262.4456819 119.01435234 -255.30031056 109.73796329 -247 101 C-245.88911215 99.71410927 -244.7845434 98.42272207 -243.6875 97.125 C-236.12192035 88.45573579 -227.87926611 80.36822383 -218.83618164 73.25219727 C-216.15175467 71.12050761 -213.52336513 68.93396591 -210.89453125 66.734375 C-205.26034833 62.12063045 -199.39063129 58.00380523 -193.3125 54 C-192.2594165 53.30430908 -191.20633301 52.60861816 -190.12133789 51.8918457 C-181.93785048 46.53029368 -173.7137835 41.45013453 -165 37 C-164.16742676 36.57412598 -163.33485352 36.14825195 -162.47705078 35.70947266 C-141.4706077 25.08383594 -119.79171635 16.87857523 -97 11 C-96.26765137 10.81099121 -95.53530273 10.62198242 -94.78076172 10.42724609 C-89.87505002 9.18140465 -84.94723941 8.06737629 -80 7 C-78.87416504 6.74887451 -78.87416504 6.74887451 -77.72558594 6.49267578 C-52.07817603 0.83750155 -26.17737556 -0.59962272 0 0 Z M-209 76 C-209.52513184 76.42361816 -210.05026367 76.84723633 -210.59130859 77.28369141 C-225.37358742 89.27420235 -239.4900969 102.8133223 -251 118 C-251.8146875 119.03253906 -252.629375 120.06507813 -253.46875 121.12890625 C-259.02173584 128.18289751 -264.17963915 135.42009312 -269 143 C-269.4242627 143.66660645 -269.84852539 144.33321289 -270.28564453 145.02001953 C-292.40036654 179.95578108 -314 226.748701 -314 269 C-288.41631381 269.45725402 -288.41631381 269.45725402 -263 267 C-261.95489258 266.84402344 -260.90978516 266.68804688 -259.83300781 266.52734375 C-242.77408683 263.96637146 -226.38016212 260.41657023 -210 255 C-208.63101562 254.55382324 -208.63101562 254.55382324 -207.234375 254.09863281 C-178.91095358 244.74178824 -151.87267975 230.8766691 -128 213 C-127.37077637 212.52916992 -126.74155273 212.05833984 -126.09326172 211.57324219 C-118.6239748 205.93820522 -111.57205958 199.96335954 -104.75 193.5625 C-102.27320706 191.25457931 -99.74771258 189.02673791 -97.1875 186.8125 C-93.76855266 183.786394 -90.74507548 180.59905487 -87.80078125 177.11328125 C-85.82066871 174.78954831 -83.75745366 172.55646028 -81.6875 170.3125 C-43.27716473 127.55504908 -14.62568363 66.47476777 -9 9 C-81.32391306 7.88216518 -152.56408557 29.9582488 -209 76 Z " fill="#C69746" transform="translate(1459,863)"/>
<path d="M0 0 C1.65 0 3.3 0 5 0 C5.15855469 0.73605469 5.31710937 1.47210937 5.48046875 2.23046875 C6.9026286 8.17839697 7.97028647 12.13998729 13 16 C13.94875 16.7425 14.8975 17.485 15.875 18.25 C19.33588691 20.18809667 22.07256952 20.68580556 26 21 C26 22.65 26 24.3 26 26 C25.41992188 26.09796875 24.83984375 26.1959375 24.2421875 26.296875 C18.19970224 27.45352234 13.28431309 28.74996105 9.55859375 34.05078125 C7.05976637 38.28668521 5.38294416 42.02172589 5 47 C3.35 47 1.7 47 0 47 C-0.09796875 46.41992188 -0.1959375 45.83984375 -0.296875 45.2421875 C-1.58768776 38.49880359 -3.403065 33.96095092 -9.0625 29.6875 C-13.90890435 26.90339537 -17.96416046 26.84830711 -23.40910339 26.84178162 C-24.27737977 26.83684364 -25.14565614 26.83190566 -26.04024392 26.82681805 C-28.9606652 26.81141379 -31.88106445 26.80307449 -34.80151367 26.79467773 C-36.89060155 26.78510151 -38.97968748 26.77509159 -41.06877136 26.76467896 C-46.75021827 26.7375961 -52.4316735 26.71660484 -58.1131494 26.69667697 C-64.04690944 26.67483825 -69.98064369 26.64743923 -75.91438293 26.62062073 C-87.15529695 26.57066521 -98.39622526 26.52573699 -109.63716727 26.48259836 C-122.43265736 26.43325041 -135.22812156 26.37832323 -148.02358663 26.32291877 C-174.34903362 26.20905484 -200.67450543 26.10222541 -227 26 C-227 24.35 -227 22.7 -227 21 C-225.9147831 20.99853344 -224.82956619 20.99706688 -223.71146393 20.99555588 C-197.30436346 20.95895906 -170.89738981 20.89950698 -144.49039459 20.81609726 C-131.72015675 20.77628989 -118.94998069 20.74390597 -106.1796875 20.72900391 C-95.04895238 20.71599625 -83.91835308 20.68905408 -72.78769445 20.64538693 C-66.89421489 20.62275239 -61.00090299 20.60709053 -55.1073761 20.60811615 C-49.55875093 20.60886157 -44.01049668 20.5909578 -38.46196747 20.55883217 C-36.42707257 20.55032255 -34.39213611 20.54859043 -32.35723114 20.55419731 C-29.5745138 20.56084261 -26.79297473 20.54290378 -24.01037598 20.51898193 C-23.20879767 20.52674235 -22.40721936 20.53450277 -21.5813508 20.54249835 C-14.48311023 20.43478778 -9.35765894 18.15264512 -4.125 13.375 C-1.40080043 9.04833009 -0.66407399 5.01524534 0 0 Z " fill="#A88740" transform="translate(1350,1496)"/>
<path d="M0 0 C1.65 0 3.3 0 5 0 C5.08636719 0.67804687 5.17273437 1.35609375 5.26171875 2.0546875 C6.88984731 12.83917207 10.28014282 20.16133884 18.62109375 27.30859375 C23.72223268 30.9355119 28.17375302 32.42696971 34.375 33.1875 C35.62023438 33.34605469 36.86546875 33.50460937 38.1484375 33.66796875 C39.08945313 33.77753906 40.03046875 33.88710938 41 34 C41 35.65 41 37.3 41 39 C40.34515625 39.00257813 39.6903125 39.00515625 39.015625 39.0078125 C28.80601496 39.44042309 20.4258445 42.92289387 13.4375 50.5 C7.9614378 57.32523695 6.29167946 63.45971936 5 72 C3.68 72 2.36 72 1 72 C0.65388672 70.7315625 0.65388672 70.7315625 0.30078125 69.4375 C-3.09087203 57.64044511 -7.36686981 49.22739993 -18.12890625 42.7109375 C-23.91723137 39.83230712 -29.59500872 39.23943893 -36 39 C-36 37.35 -36 35.7 -36 34 C-35.17757812 33.91363281 -34.35515625 33.82726562 -33.5078125 33.73828125 C-23.28544818 32.45163262 -14.67546809 29.84300312 -7.53515625 22.078125 C-2.55576227 15.33757131 -0.40716229 8.27896664 0 0 Z " fill="#C19446" transform="translate(1041,534)"/>
<path d="M0 0 C1.65 0 3.3 0 5 0 C5.08636719 0.71285156 5.17273438 1.42570312 5.26171875 2.16015625 C6.1908261 8.49342931 7.28143665 13.46672055 12 18 C18.26021079 22.58988549 23.8703347 23.14901137 31.41546631 23.15821838 C32.27234645 23.16315636 33.12922659 23.16809434 34.0120728 23.17318195 C36.88792939 23.18855969 39.76376364 23.19691834 42.63964844 23.20532227 C44.69932756 23.21490057 46.75900472 23.22491062 48.81867981 23.23532104 C54.41535932 23.26238132 60.01204726 23.28338484 65.60875607 23.30332303 C71.45575948 23.32517563 77.30273684 23.35256788 83.14971924 23.37937927 C94.22414475 23.42931596 105.29858472 23.47425119 116.37303853 23.51740164 C128.97992195 23.56676565 141.58677923 23.62168689 154.19363737 23.67708123 C180.12906719 23.79091627 206.06452209 23.89775202 232 24 C232 25.32 232 26.64 232 28 C230.91055116 27.99962297 229.82110231 27.99924595 228.69863987 27.9988575 C202.18268681 27.99105129 175.66693813 28.01765385 149.15105534 28.0802784 C136.32811798 28.10976775 123.50534634 28.12810074 110.68237305 28.12011719 C99.50508082 28.1131866 88.32804507 28.12724227 77.1508159 28.16643608 C71.23318446 28.18645548 65.31595576 28.19600802 59.39830208 28.18042374 C53.8257376 28.16607997 48.25394215 28.17984502 42.68147659 28.21495247 C40.63893567 28.22290586 38.59632518 28.22068485 36.55381203 28.20739174 C23.17772576 27.73377099 23.17772576 27.73377099 11.48956966 33.39118767 C6.60489876 38.66688506 5.32038153 43.93558735 5 51 C3.35 51 1.7 51 0 51 C-0.04125 49.700625 -0.0825 48.40125 -0.125 47.0625 C-0.84257346 40.74386705 -3.80698187 35.65232398 -8.70703125 31.58203125 C-12.70091696 29.08472574 -16.41416871 28.37435357 -21 28 C-21 26.35 -21 24.7 -21 23 C-20.43152344 22.91363281 -19.86304688 22.82726563 -19.27734375 22.73828125 C-12.80330712 21.56020113 -7.62203703 19.72185804 -3.71484375 14.17578125 C-1.16622003 9.52614157 -0.37547046 5.25658648 0 0 Z " fill="#B99044" transform="translate(728,1494)"/>
<path d="M0 0 C4.99462149 -0.1254736 9.98828654 -0.21520085 14.98413086 -0.2746582 C16.67635109 -0.29949431 18.36846769 -0.33337591 20.06030273 -0.37719727 C31.79639855 -0.67312374 44.42407085 -0.63791946 54.30004883 6.71166992 C57.09573268 9.44482916 58.36646275 12.11198511 58.75 16 C58.40064402 20.08905291 56.65704858 22.60009024 53.8671875 25.5234375 C50.80605521 27.94416554 47.7289595 28.90702911 44 30 C44.71285156 30.3403125 45.42570313 30.680625 46.16015625 31.03125 C53.1750984 34.58120727 60.1412132 38.38491487 62.75 46.265625 C63.60934328 51.5291026 62.73717957 55.34679472 60 60 C48.25109035 71.13054598 33.35625924 70.41222822 18.25 70.1875 C16.47396974 70.17241866 14.69792703 70.15873639 12.921875 70.14648438 C8.61427011 70.11376858 4.3072762 70.06217936 0 70 C1.26953125 68.53515625 2.5390625 67.0703125 3.80859375 65.60546875 C6.08732616 62.53478344 6.12960793 59.67710016 6.14526367 55.99707031 C6.15164352 54.97881165 6.15802338 53.96055298 6.16459656 52.91143799 C6.16570938 51.8114447 6.1668222 50.71145142 6.16796875 49.578125 C6.17129715 48.44477722 6.17462555 47.31142944 6.17805481 46.14373779 C6.18312152 43.74296474 6.18546321 41.34218464 6.18530273 38.94140625 C6.18748302 35.27852659 6.20562461 31.6159511 6.22460938 27.953125 C6.22754462 25.6197927 6.22952854 23.28645896 6.23046875 20.953125 C6.23765427 19.86122864 6.24483978 18.76933228 6.25224304 17.64434814 C6.235688 12.09735368 6.20785067 7.14249035 4 2 C2.01432266 0.50256112 2.01432266 0.50256112 0 0 Z M16 1 C16 23.44 16 45.88 16 69 C33.53470683 69.07487154 33.53470683 69.07487154 47.8125 60.5 C52.13269825 55.56263057 52.57167434 51.51516456 52.4296875 45.046875 C51.73802698 40.14237313 49.82608235 37.10869191 46 34 C42.75810223 32.30186307 39.50165739 31.05188127 36 30 C37.3303125 29.443125 37.3303125 29.443125 38.6875 28.875 C42.42031757 26.7620844 45.18392988 24.91447046 47 21 C47.94416702 16.15283272 48.42289878 11.29954539 45.73828125 6.9609375 C37.55581089 -0.78284564 26.60795035 1 16 1 Z " fill="#CB9947" transform="translate(754,1390)"/>
<path d="M0 0 C6.8047628 5.28264481 11.48542093 12.90932934 12.90234375 21.42578125 C12.98613281 22.19535156 13.06992187 22.96492188 13.15625 23.7578125 C13.25035156 24.59957031 13.34445312 25.44132812 13.44140625 26.30859375 C14.01839398 36.53163278 10.49024053 45.49769757 3.90625 53.2578125 C-3.45615364 60.79143483 -12.0762207 64.93452634 -22.7421875 65.0871582 C-23.75152344 65.07881958 -23.75152344 65.07881958 -24.78125 65.0703125 C-25.48636719 65.06539795 -26.19148437 65.0604834 -26.91796875 65.05541992 C-32.34610878 64.93290982 -36.04719997 64.24174019 -40.84375 61.7578125 C-41.50503906 61.4175 -42.16632812 61.0771875 -42.84765625 60.7265625 C-50.70613776 56.31269053 -56.8232788 49.29957513 -59.84375 40.7578125 C-62.39047059 28.4173275 -61.0883173 18.48898866 -55.09375 7.5703125 C-41.2766981 -9.70100238 -18.27211832 -12.3104526 0 0 Z M-45.328125 1.33203125 C-51.98707371 9.73405771 -52.81382253 19.35157987 -51.84375 29.7578125 C-49.84821625 40.78076084 -45.73904142 51.30102304 -36.65625 58.3203125 C-35.4126269 59.17387866 -34.14186409 59.98965014 -32.84375 60.7578125 C-32.25464844 61.13035156 -31.66554688 61.50289062 -31.05859375 61.88671875 C-25.35514568 64.12987381 -17.19198112 63.61409825 -11.29296875 62.10546875 C-4.64566913 59.0980497 -0.18165808 53.48396965 2.54760742 46.81665039 C3.73122158 42.81287254 3.68622409 38.78010221 3.65625 34.6328125 C3.64658203 33.24002075 3.64658203 33.24002075 3.63671875 31.8190918 C3.31226931 19.54657825 -0.83179016 9.38423395 -9.84375 0.7578125 C-20.83333285 -6.95448794 -35.48586725 -9.1059421 -45.328125 1.33203125 Z " fill="#C19446" transform="translate(883.84375,1396.2421875)"/>
<path d="M0 0 C4.90581414 -0.9257746 10.26732974 -1.82124055 14.6484375 1.09863281 C18.58436593 4.63068799 21.78159877 8.82395109 25 13 C26.47581637 14.815229 27.95473991 16.62793851 29.4375 18.4375 C30.50291016 19.76587891 30.50291016 19.76587891 31.58984375 21.12109375 C34.96708559 25.15517355 38.57424296 28.95592847 42.1809082 32.78417969 C46.40663106 37.29477573 50.3488558 41.95223928 54.1953125 46.79296875 C55.71821468 48.65539241 57.28706845 50.31811948 59 52 C59.0991017 45.98605117 59.17157916 39.97258085 59.21972656 33.95800781 C59.2398042 31.9133272 59.26707225 29.86870373 59.30175781 27.82421875 C59.35044519 24.88006463 59.37300744 21.93667166 59.390625 18.9921875 C59.41127014 18.0825827 59.43191528 17.17297791 59.45318604 16.23580933 C59.45514879 10.64593609 58.80778088 7.38504648 55 3 C53.68 2.01 52.36 1.02 51 0 C56.94 0 62.88 0 69 0 C67.47005208 1.7578125 65.94010417 3.515625 64.41015625 5.2734375 C61.78748175 8.48457913 61.85353943 10.73997667 61.79467773 14.82666016 C61.77473251 16.04777496 61.75478729 17.26888977 61.73423767 18.52700806 C61.71725344 19.86435823 61.70037463 21.20170975 61.68359375 22.5390625 C61.66302397 23.90384553 61.64202749 25.26862218 61.62062073 26.63339233 C61.56540241 30.22707973 61.51599213 33.8208246 61.46777344 37.41461182 C61.41755663 41.08114746 61.36187151 44.74759956 61.30664062 48.4140625 C61.199062 55.60930426 61.09761643 62.80461546 61 70 C57.20334158 66.88732812 53.98190043 64.01069598 50.9375 60.125 C47.26478073 55.53255776 43.49065051 51.05617561 39.625 46.625 C34.15368675 40.34256277 28.7491578 34.00848159 23.38232422 27.63671875 C21.9065427 25.88934339 20.42460381 24.14733391 18.94140625 22.40625 C18.43883301 21.81537598 17.93625977 21.22450195 17.41845703 20.61572266 C16.45577351 19.4841807 15.49196732 18.35359259 14.52685547 17.22412109 C12.53387317 14.8780835 10.71044603 12.56566904 9 10 C8.87306336 17.29554638 8.78559084 24.59080725 8.7253418 31.88720703 C8.70022159 34.36843508 8.66611931 36.84958931 8.62280273 39.33056641 C8.56204519 42.90025054 8.5337642 46.46895505 8.51171875 50.0390625 C8.48591232 51.14553131 8.4601059 52.25200012 8.43351746 53.39199829 C8.35987235 59.9722546 8.35987235 59.9722546 11.34301758 65.62255859 C13.95339615 68.07108954 13.95339615 68.07108954 17 70 C10.73 70 4.46 70 -2 70 C-0.35 68.68 1.3 67.36 3 66 C5.9582649 62.84974094 6.37768384 60.75300238 6.38818359 56.46875 C6.39764008 55.36080078 6.40709656 54.25285156 6.4168396 53.11132812 C6.41076691 51.91958984 6.40469421 50.72785156 6.3984375 49.5 C6.40130768 48.27216797 6.40417786 47.04433594 6.40713501 45.77929688 C6.40917631 43.18358906 6.40364193 40.58786588 6.39111328 37.9921875 C6.37506166 34.01527565 6.39096091 30.03938018 6.41015625 26.0625 C6.40817383 23.54166442 6.40433019 21.02082947 6.3984375 18.5 C6.40451019 17.30826172 6.41058289 16.11652344 6.4168396 14.88867188 C6.40738312 13.78072266 6.39792664 12.67277344 6.38818359 11.53125 C6.38579681 10.55736328 6.38341003 9.58347656 6.38095093 8.58007812 C5.93191295 5.53886472 5.08351381 4.22889835 3 2 C2.01 1.34 1.02 0.68 0 0 Z " fill="#C89847" transform="translate(1035,1390)"/>
<path d="M0 0 C4.36375356 3.620987 7.67128566 7.31549959 8.375 13.0625 C7.95253528 16.37180695 7.48311545 17.77375856 5 20 C2.375 20.3125 2.375 20.3125 0 20 C-1.58587507 18.41412493 -1.46353731 16.49433217 -1.8125 14.3125 C-3.02170747 8.17007652 -5.00902432 4.60972502 -9.9375 0.625 C-15.78453829 -2.3741274 -23.19728796 -2.04327652 -29.40625 -0.33984375 C-35.80909674 2.50449778 -40.26230805 7.5472585 -42.875 14 C-46.08578334 25.37313618 -44.51756832 36.67906637 -39 47 C-34.40549914 54.1949417 -27.78845966 58.59564587 -19.48828125 60.609375 C-11.26663405 61.90005745 -4.3678112 61.04215697 3 57 C4.00708356 56.00713409 5.00870778 55.00863261 6 54 C6.66 54 7.32 54 8 54 C8.66 52.68 9.32 51.36 10 50 C10 54.30802199 7.8830061 55.90458522 5.06640625 59 C-1.31952887 65.18071603 -8.65835663 68.26209973 -17.5625 68.4375 C-28.28223037 68.24526855 -37.40102049 64.7471058 -45.12890625 57.24609375 C-52.92198348 47.89114718 -55.02857293 36.86716017 -54 25 C-51.51600797 13.89260383 -45.46453132 6.08162655 -36 0 C-25.42241166 -6.13500124 -10.57647409 -6.19306848 0 0 Z " fill="#C69746" transform="translate(1187,1393)"/>
<path d="M0 0 C18.15 0 36.3 0 55 0 C56.3547936 6.77396799 57.24411994 11.40876152 57 18 C54.99197382 15.99197382 54.3938289 14.74648196 53.3125 12.1875 C51.04723714 7.64873695 48.61861713 5.12049717 44 3 C41.9295546 2.55714728 39.84360134 2.18293444 37.75 1.8671875 C36.67234375 1.7007373 35.5946875 1.53428711 34.484375 1.36279297 C33.66453125 1.24307129 32.8446875 1.12334961 32 1 C32.08454806 8.71956435 32.17948713 16.43894236 32.28752708 24.15821266 C32.3373768 27.74296864 32.38370728 31.32769676 32.421875 34.91259766 C32.45887163 38.37515241 32.50526943 41.83746749 32.55806351 45.29981613 C32.58549133 47.25722138 32.60329589 49.21475385 32.62094116 51.17227173 C32.64081085 52.37306366 32.66068054 53.57385559 32.68115234 54.81103516 C32.69447601 55.86360504 32.70779968 56.91617493 32.7215271 58.00064087 C33.03072725 61.33095521 33.65394432 63.93523288 35 67 C36.32 67.99 37.64 68.98 39 70 C31.41 70 23.82 70 16 70 C17.65 68.68 19.3 67.36 21 66 C22.36682074 63.26635853 22.16265463 61.04962521 22.20532227 57.98974609 C22.22526749 56.72858978 22.24521271 55.46743347 22.26576233 54.1680603 C22.28274665 52.78652063 22.29962546 51.40497966 22.31640625 50.0234375 C22.3369756 48.61381418 22.35797207 47.20419703 22.37937927 45.79458618 C22.43460195 42.08252965 22.48401031 38.37041743 22.53222656 34.65826416 C22.58244018 30.87108397 22.63812697 27.08398474 22.69335938 23.296875 C22.80094333 15.86465188 22.90238773 8.43236148 23 1 C21.55516265 1.13799497 20.1109336 1.28236928 18.66699219 1.42944336 C17.86267761 1.50915878 17.05836304 1.58887421 16.22967529 1.67100525 C10.89243725 2.45852947 6.54585871 5.9498969 3.359375 10.17578125 C2.49126457 11.58022427 1.6587518 13.00773104 0.875 14.4609375 C0.58625 14.96882813 0.2975 15.47671875 0 16 C-0.33 16 -0.66 16 -1 16 C-1.02763357 14.64595503 -1.04667422 13.29173445 -1.0625 11.9375 C-1.07410156 11.18339844 -1.08570313 10.42929688 -1.09765625 9.65234375 C-0.97851072 6.41635123 -0.45794854 3.20563978 0 0 Z " fill="#CA9947" transform="translate(903,1390)"/>
<path d="M0 0 C7.59 0 15.18 0 23 0 C21.35 1.32 19.7 2.64 18 4 C16.63317926 6.73364147 16.83734537 8.95037479 16.79467773 12.01025391 C16.77473251 13.27141022 16.75478729 14.53256653 16.73423767 15.8319397 C16.71725335 17.21347937 16.70037454 18.59502034 16.68359375 19.9765625 C16.6630244 21.38618582 16.64202793 22.79580297 16.62062073 24.20541382 C16.56539805 27.91747035 16.51598969 31.62958257 16.46777344 35.34173584 C16.41755982 39.12891603 16.36187303 42.91601526 16.30664062 46.703125 C16.19905667 54.13534812 16.09761227 61.56763852 16 69 C19.7300411 68.91888292 23.458476 68.80605925 27.1875 68.6875 C28.24259766 68.66494141 29.29769531 68.64238281 30.38476562 68.61914062 C31.40634766 68.58369141 32.42792969 68.54824219 33.48046875 68.51171875 C34.41785889 68.48553467 35.35524902 68.45935059 36.32104492 68.43237305 C41.02967335 67.67241853 44.22268606 65.23368296 47.0625 61.5 C50.4888087 56.75451818 52.26627628 51.54791592 54 46 C55.94701045 53.78804178 53.19083706 62.06108625 52 70 C34.84 70 17.68 70 0 70 C1.65 68.35 3.3 66.7 5 65 C6.20688505 62.00805831 6.13163225 59.07471593 6.14526367 55.86767578 C6.15164352 54.84626495 6.15802338 53.82485413 6.16459656 52.77249146 C6.16570938 51.6745224 6.1668222 50.57655334 6.16796875 49.4453125 C6.17129715 48.311008 6.17462555 47.17670349 6.17805481 46.00802612 C6.18311632 43.60903326 6.18546337 41.21003336 6.18530273 38.81103516 C6.18748746 35.14604046 6.20564684 31.48134763 6.22460938 27.81640625 C6.22754382 25.48437603 6.22952827 23.15234438 6.23046875 20.8203125 C6.23765427 19.72639191 6.24483978 18.63247131 6.25224304 17.50540161 C6.29930278 10.02797167 6.29930278 10.02797167 4 3 C2.68 2.01 1.36 1.02 0 0 Z " fill="#CA9947" transform="translate(1274,1390)"/>
<path d="M0 0 C1.32 0 2.64 0 4 0 C4.3403125 1.7325 4.3403125 1.7325 4.6875 3.5 C6.1922521 9.28357098 8.25581634 14.14916494 13.33984375 17.578125 C17.78231292 19.90290586 21.94628229 21.60102229 27 22 C27 23.32 27 24.64 27 26 C26.3709375 26.07476563 25.741875 26.14953125 25.09375 26.2265625 C18.46174632 27.24533415 13.68271762 29.0793614 9 34 C6.28833515 38.01640794 4.60393825 42.16849396 4 47 C2.68 47 1.36 47 0 47 C-0.36351562 45.89591797 -0.36351562 45.89591797 -0.734375 44.76953125 C-3.5036324 35.97349321 -3.5036324 35.97349321 -10.0078125 29.85546875 C-14.65184967 27.62790516 -18.87995347 26.43574864 -24 26 C-24 24.68 -24 23.36 -24 22 C-23.2265625 21.86464844 -22.453125 21.72929688 -21.65625 21.58984375 C-14.26379998 20.06194876 -8.68945228 18.15048766 -4 12 C-2.6030943 9.05966004 -1.74119542 6.16080031 -1 3 C-0.67 2.01 -0.34 1.02 0 0 Z " fill="#C39546" transform="translate(1239,787)"/>
<path d="M0 0 C1.32 0 2.64 0 4 0 C4.29390625 1.17755859 4.29390625 1.17755859 4.59375 2.37890625 C6.77763731 10.05075174 9.25227469 14.61871142 16 19 C19.563197 20.86643653 23.02718684 21.44565398 27 22 C27 23.32 27 24.64 27 26 C26.43152344 26.09796875 25.86304688 26.1959375 25.27734375 26.296875 C19.15213372 27.48305925 13.62446306 28.80469882 9.52734375 33.79296875 C6.72662739 38.01445667 5.12779118 42.07872938 4 47 C2.68 47 1.36 47 0 47 C-0.22042969 46.03900391 -0.22042969 46.03900391 -0.4453125 45.05859375 C-2.04681391 38.88268889 -3.93913832 34.08280751 -9 30 C-13.404914 27.61730201 -18.04834565 26.61895679 -23 26 C-23 24.68 -23 23.36 -23 22 C-21.67935547 21.63648438 -21.67935547 21.63648438 -20.33203125 21.265625 C-19.17058594 20.93046875 -18.00914062 20.5953125 -16.8125 20.25 C-15.66394531 19.92515625 -14.51539063 19.6003125 -13.33203125 19.265625 C-9.03723266 17.63430642 -6.08488774 15.78368308 -3.671875 11.81640625 C-3.36765625 11.07261719 -3.0634375 10.32882812 -2.75 9.5625 C-2.4303125 8.78132812 -2.110625 8.00015625 -1.78125 7.1953125 C-0.93489522 4.81705558 -0.32336116 2.50604901 0 0 Z " fill="#C39546" transform="translate(844,787)"/>
<path d="M0 0 C3.63 0 7.26 0 11 0 C11.32049316 0.74121094 11.64098633 1.48242188 11.97119141 2.24609375 C13.52177369 5.83102682 15.07313283 9.415623 16.625 13 C17.05384995 13.99058914 17.05384995 13.99058914 17.49136353 15.00119019 C20.94982852 22.98761113 24.41906237 30.96918884 27.91015625 38.94140625 C28.22772888 39.66661469 28.54530151 40.39182312 28.87249756 41.13900757 C30.41501297 44.66036686 31.95897344 48.1810869 33.50439453 51.70117188 C34.06934005 52.98958153 34.63428166 54.2779929 35.19921875 55.56640625 C35.93918091 57.25165405 35.93918091 57.25165405 36.6940918 58.97094727 C37.52433423 60.89669374 38.30328694 62.84599552 39.01098633 64.82006836 C39.845246 67.26701706 39.845246 67.26701706 42.625 68.3125 C43.40875 68.539375 44.1925 68.76625 45 69 C45 69.33 45 69.66 45 70 C38.07 70 31.14 70 24 70 C24.99 69.01 24.99 69.01 26 68 C26.61046449 62.86480488 25.02943809 58.94991191 22.96484375 54.35546875 C22.64850479 53.62741531 22.33216583 52.89936188 22.00624084 52.14924622 C20.99352678 49.82404356 19.96611985 47.50570393 18.9375 45.1875 C17.94126648 42.91674864 16.94816883 40.64464559 15.95547485 38.37234497 C15.29641067 36.86419837 14.6360761 35.35660628 13.97445679 33.84957886 C10.51715516 25.95409847 7.2466291 17.98396039 4 10 C3.34 10 2.68 10 2 10 C1.855625 8.906875 1.71125 7.81375 1.5625 6.6875 C1.11711896 3.06877013 1.11711896 3.06877013 0 0 Z " fill="#C89847" transform="translate(987,1390)"/>
<path d="M0 0 C3.63 0 7.26 0 11 0 C11.32049316 0.74121094 11.64098633 1.48242188 11.97119141 2.24609375 C18.21240166 16.67571886 24.4666975 31.09958875 30.76165771 45.50585938 C31.37696819 46.91423039 31.99192004 48.32275814 32.60650635 49.73144531 C33.46965851 51.70946078 34.33422664 53.68685108 35.19921875 55.6640625 C35.69252686 56.79279785 36.18583496 57.9215332 36.6940918 59.08447266 C37.1250415 60.04659668 37.55599121 61.0087207 38 62 C38.28464111 62.70817871 38.56928223 63.41635742 38.86254883 64.14599609 C40.27499332 66.68317508 40.27499332 66.68317508 45 70 C38.07 70 31.14 70 24 70 C24.99 69.01 24.99 69.01 26 68 C26.57631323 62.97554211 25.12830595 59.1708589 23.10546875 54.671875 C22.80192474 53.97305206 22.49838074 53.27422913 22.18563843 52.55422974 C21.19609753 50.28170784 20.19179464 48.01603498 19.1875 45.75 C18.50327618 44.18428025 17.82026065 42.61803194 17.13842773 41.05126953 C15.7608184 37.88749021 14.37866403 34.7257609 12.99316406 31.56542969 C10.13074846 25.0239955 7.3425151 18.45182319 4.5625 11.875 C4.09674561 10.78026367 3.63099121 9.68552734 3.15112305 8.55761719 C2.7312915 7.56665039 2.31145996 6.57568359 1.87890625 5.5546875 C1.5135376 4.69343262 1.14816895 3.83217773 0.77172852 2.94482422 C0 1 0 1 0 0 Z " fill="#C89847" transform="translate(1228,1390)"/>
<path d="M0 0 C2.59336185 1.29668093 2.90784262 2.54821551 4.1875 5.125 C8.68180707 13.37984973 14.65795367 17.89518355 23 22 C21.05412273 23.47127305 19.10508128 24.92655144 17.10546875 26.32421875 C10.10609242 31.29933553 4.38983132 37.02392631 1 45 C-1.08450753 42.29808702 -2.90686411 39.53320189 -4.6875 36.625 C-9.05466864 30.03631877 -14.84482528 26.21982862 -22 23 C-19.92402555 21.40236068 -17.84330834 19.9001931 -15.6328125 18.4921875 C-8.00578101 13.5738214 -3.93212759 8.06450242 0 0 Z " fill="#2A4830" transform="translate(1043,548)"/>
<path d="M0 0 C7.59 0 15.18 0 23 0 C21.35 1.32 19.7 2.64 18 4 C16.69294262 6.61411476 16.85858285 8.56030841 16.83886719 11.48779297 C16.82925964 12.63593475 16.8196521 13.78407654 16.80975342 14.9670105 C16.8033786 16.83572311 16.8033786 16.83572311 16.796875 18.7421875 C16.78832489 20.65476852 16.78832489 20.65476852 16.77960205 22.60598755 C16.77014138 25.30783663 16.76325001 28.00957434 16.75976562 30.71142578 C16.75428267 34.17056168 16.7302589 37.62930358 16.70179367 41.08831596 C16.67866941 44.38957667 16.67671768 47.69085712 16.671875 50.9921875 C16.6595282 52.23394745 16.6471814 53.4757074 16.63446045 54.75509644 C16.63746155 55.90954254 16.64046265 57.06398865 16.64355469 58.25341797 C16.63990906 59.26886688 16.63626343 60.2843158 16.63250732 61.33053589 C17.06049245 64.43941674 17.86458636 65.73555989 20 68 C21.485 68.99 21.485 68.99 23 70 C15.41 70 7.82 70 0 70 C1.65 68.35 3.3 66.7 5 65 C6.20688505 62.00805831 6.13163225 59.07471593 6.14526367 55.86767578 C6.15164352 54.84626495 6.15802338 53.82485413 6.16459656 52.77249146 C6.16570938 51.6745224 6.1668222 50.57655334 6.16796875 49.4453125 C6.17129715 48.311008 6.17462555 47.17670349 6.17805481 46.00802612 C6.18311632 43.60903326 6.18546337 41.21003336 6.18530273 38.81103516 C6.18748746 35.14604046 6.20564684 31.48134763 6.22460938 27.81640625 C6.22754382 25.48437603 6.22952827 23.15234438 6.23046875 20.8203125 C6.23765427 19.72639191 6.24483978 18.63247131 6.25224304 17.50540161 C6.29930278 10.02797167 6.29930278 10.02797167 4 3 C2.68 2.01 1.36 1.02 0 0 Z " fill="#CB9947" transform="translate(1105,1390)"/>
<path d="M0 0 C8.51702148 -0.86908382 18.24741389 1.6756104 25.30078125 6.609375 C28.02708559 9.44629312 29.36247717 12.07158232 29.75 16 C29.40064402 20.08905291 27.65704858 22.60009024 24.8671875 25.5234375 C21.80605521 27.94416554 18.7289595 28.90702911 15 30 C15.71285156 30.3403125 16.42570313 30.680625 17.16015625 31.03125 C24.1750984 34.58120727 31.1412132 38.38491487 33.75 46.265625 C34.60934328 51.5291026 33.73717957 55.34679472 31 60 C23.71509847 66.90148566 14.34870096 70.0572316 4.375 70.3125 C1 70 1 70 -1 68 C-0.35933594 67.90203125 0.28132812 67.8040625 0.94140625 67.703125 C6.82031599 66.68680081 10.97008335 65.18219217 16 62 C17.485 61.505 17.485 61.505 19 61 C20.16953416 58.57616923 20.16953416 58.57616923 21 56 C21.33 55.34 21.66 54.68 22 54 C22.5886816 48.45798325 23.10487564 42.79277534 20 37.9375 C15.24853621 32.55774347 9.47971935 31.93396279 2.72583008 31.44677734 C-0.51525414 31.2512529 -3.75502849 31.11420409 -7 31 C-7 30.67 -7 30.34 -7 30 C-5.58847656 29.94392578 -5.58847656 29.94392578 -4.1484375 29.88671875 C-2.90320313 29.82097656 -1.65796875 29.75523438 -0.375 29.6875 C1.46964844 29.60048828 1.46964844 29.60048828 3.3515625 29.51171875 C8.22177018 28.82863823 11.58732075 27.15244886 15.375 24.0625 C17.96904712 19.17371889 17.95109403 14.39951805 17 9 C12.77144832 3.40002615 6.64283395 2.45385868 0 1 C0 0.67 0 0.34 0 0 Z " fill="#C59646" transform="translate(783,1390)"/>
<path d="M0 0 C67.98 0 135.96 0 206 0 C206 0.99 206 1.98 206 3 C138.02 3 70.04 3 0 3 C0 2.01 0 1.02 0 0 Z " fill="#CC9A48" transform="translate(754,1518)"/>
<path d="M0 0 C67.65 0 135.3 0 205 0 C205 0.99 205 1.98 205 3 C137.35 3 69.7 3 0 3 C0 2.01 0 1.02 0 0 Z " fill="#CC9A48" transform="translate(1124,1518)"/>
<path d="M0 0 C2.87557703 -0.08138426 5.74882262 -0.14067851 8.625 -0.1875 C9.43324219 -0.21263672 10.24148438 -0.23777344 11.07421875 -0.26367188 C17.08696412 -0.33699804 21.44717425 0.52952347 25.9375 4.875 C27 7 27 7 26.9375 9.5 C25.81578241 12.49124691 24.45953796 13.98765076 22 16 C21.34 16 20.68 16 20 16 C23.63971299 21.6395553 27.47924161 27.01308044 31.6796875 32.25 C33 34 33 34 33 35 C30.36328125 35.4609375 30.36328125 35.4609375 27 35 C24.63145622 32.8451076 22.954234 30.28115976 21.1875 27.625 C20.69830078 26.92632813 20.20910156 26.22765625 19.70507812 25.5078125 C16.31740687 20.63481373 16.31740687 20.63481373 15 18 C12.69 17.67 10.38 17.34 8 17 C8.33 22.61 8.66 28.22 9 34 C9.66 34.33 10.32 34.66 11 35 C7.37 35 3.74 35 0 35 C0.99 34.505 0.99 34.505 2 34 C2 23.11 2 12.22 2 1 C1.34 0.67 0.68 0.34 0 0 Z " fill="#CA9847" transform="translate(1047,1495)"/>
<path d="M0 0 C4.33333333 4.33333333 8.66666667 8.66666667 13 13 C12.20335937 13.54527344 12.20335937 13.54527344 11.390625 14.1015625 C6.84855246 17.33405938 3.76940714 20.1535375 1 25 C0.484375 24.29875 -0.03125 23.5975 -0.5625 22.875 C-2.99162605 20.00987697 -5.53127823 17.7175667 -8.4140625 15.33203125 C-10 14 -10 14 -12 12 C-11.113125 11.46375 -10.22625 10.9275 -9.3125 10.375 C-5.31262827 7.72105667 -2.16365027 4.32730054 0 0 Z " fill="#1C3B21" transform="translate(1352,1507)"/>
<path d="M0 0 C8.25 0 16.5 0 25 0 C25 1.65 25 3.3 25 5 C23.68 4.01 22.36 3.02 21 2 C16.71 1.67 12.42 1.34 8 1 C8 11.89 8 22.78 8 34 C14.435 33.505 14.435 33.505 21 33 C23.46399641 29.97811761 24.73118283 28.4172438 26 25 C27.36948916 28.95630201 26.77791742 30.33249547 26 35 C17.42 35 8.84 35 0 35 C0.99 34.505 0.99 34.505 2 34 C2 23.11 2 12.22 2 1 C1.34 0.67 0.68 0.34 0 0 Z " fill="#CA9947" transform="translate(1082,1495)"/>
<path d="M0 0 C1.98051192 1.87627445 3.65230531 3.80679868 5.375 5.9375 C7.64121927 8.69966999 10.12444268 10.8638717 13 13 C12.20335937 13.54527344 12.20335937 13.54527344 11.390625 14.1015625 C6.84855246 17.33405938 3.76940714 20.1535375 1 25 C0.46375 24.278125 -0.0725 23.55625 -0.625 22.8125 C-3.21720817 19.7427798 -5.87966992 17.52282007 -9 15 C-10.01049475 14.01060607 -11.01326282 13.01308921 -12 12 C-11.46890625 11.63648438 -10.9378125 11.27296875 -10.390625 10.8984375 C-5.84855246 7.66594062 -2.76940714 4.8464625 0 0 Z " fill="#234228" transform="translate(730,1507)"/>
<path d="M0 0 C0.66 0 1.32 0 2 0 C2.90620792 1.44322002 3.81195939 2.88672967 4.71484375 4.33203125 C6.97091468 7.26012331 9.92572048 8.98989416 13 11 C12.319375 11.66 11.63875 12.32 10.9375 13 C7.43274653 16.49468234 4.22778212 20.25130779 1 24 C0.2575 22.9790625 0.2575 22.9790625 -0.5 21.9375 C-3.67198797 18.21041414 -7.26389901 15.14666758 -11 12 C-8.80161026 9.80161026 -6.59978365 7.60931261 -4.375 5.4375 C-1.89526499 3.04154383 -1.89526499 3.04154383 0 0 Z " fill="#244328" transform="translate(1240,799)"/>
<path d="M0 0 C0.8353125 1.0828125 0.8353125 1.0828125 1.6875 2.1875 C3.98244648 4.97865112 6.4134273 7.47974967 9 10 C10.00118273 10.99881587 11.00144822 11.99855387 12 13 C11.46890625 13.44730469 10.9378125 13.89460937 10.390625 14.35546875 C6.52111681 17.66714638 3.01412695 20.85557544 0 25 C-0.53109375 24.39671875 -1.0621875 23.7934375 -1.609375 23.171875 C-2.66898438 21.97304688 -2.66898438 21.97304688 -3.75 20.75 C-4.44609375 19.96109375 -5.1421875 19.1721875 -5.859375 18.359375 C-7.84586916 16.16988144 -9.89101308 14.07098715 -12 12 C-11.46890625 11.63648438 -10.9378125 11.27296875 -10.390625 10.8984375 C-5.84855246 7.66594062 -2.76940714 4.8464625 0 0 Z " fill="#2C4930" transform="translate(846,798)"/>
<path d="M0 0 C0.99 0.33 1.98 0.66 3 1 C1.47005208 2.23697917 -0.05989583 3.47395833 -1.58984375 4.7109375 C-3.64045865 6.58546081 -3.97834075 7.76920468 -4.23828125 10.5390625 C-4.39730468 17.15108951 -4.31674244 22.70275854 0 28 C3.74352063 31.33599813 7.85245187 32.75782008 12.93359375 32.5390625 C16.95983752 31.48873804 19.94966985 28.72582694 23 26 C20.95667138 30.56343392 17.78658961 33.79247783 13.125 35.8125 C5.79086112 36.4596299 2.05225462 36.30641194 -4 32 C-8.40195225 27.47907606 -10.04177723 22.84961218 -10.4375 16.625 C-10.28354273 10.10380971 -6.89690172 5.8517374 -2.375 1.4375 C-1.59125 0.963125 -0.8075 0.48875 0 0 Z " fill="#BC9144" transform="translate(986,1495)"/>
<path d="M0 0 C1.65 0 3.3 0 5 0 C6.75088093 3.81209603 8.50054232 7.62475063 10.25 11.4375 C10.74113281 12.50677734 11.23226563 13.57605469 11.73828125 14.67773438 C12.22167969 15.73154297 12.70507812 16.78535156 13.203125 17.87109375 C13.67943359 18.90862793 14.15574219 19.94616211 14.64648438 21.01513672 C16.18871244 24.41616131 17.6745651 27.83936429 19.13183594 31.27758789 C19.98486221 33.19363899 19.98486221 33.19363899 22 35 C18.7 35 15.4 35 12 35 C11.8299646 33.46243042 11.8299646 33.46243042 11.65649414 31.89379883 C11.01994323 28.11828731 10.02674801 25.19279162 8.49609375 21.69921875 C8.00302734 20.55775391 7.50996094 19.41628906 7.00195312 18.24023438 C6.48568359 17.06783203 5.96941406 15.89542969 5.4375 14.6875 C4.41230551 12.33857235 3.39001163 9.98837587 2.37109375 7.63671875 C1.91661865 6.60248779 1.46214355 5.56825684 0.99389648 4.50268555 C0 2 0 2 0 0 Z " fill="#C59646" transform="translate(1024,1495)"/>
<path d="M0 0 C9.40212264 -0.27653302 9.40212264 -0.27653302 13 2 C14.42662219 4.85324437 14.31033868 6.83454549 14 10 C12.625 12.875 12.625 12.875 10 15 C6.55579372 15.42647695 3.49320317 15.229816 0 15 C0 10.05 0 5.1 0 0 Z " fill="#1B3D23" transform="translate(1055,1496)"/>
<path d="M0 0 C6.04358985 -0.32248404 10.80745507 -0.54612824 16 3 C17.9375 4.875 17.9375 4.875 19 7 C18.91573005 10.3707979 18.23500377 11.71951163 16.0625 14.3125 C14 16 14 16 12 16 C15.63971299 21.6395553 19.47924161 27.01308044 23.6796875 32.25 C25 34 25 34 25 35 C22.36328125 35.4609375 22.36328125 35.4609375 19 35 C16.63145622 32.8451076 14.954234 30.28115976 13.1875 27.625 C12.69830078 26.92632813 12.20910156 26.22765625 11.70507812 25.5078125 C8.31740687 20.63481373 8.31740687 20.63481373 7 18 C4.67843403 17.59270772 2.3431213 17.25561323 0 17 C0 16.67 0 16.34 0 16 C1.03060547 15.96132812 1.03060547 15.96132812 2.08203125 15.921875 C2.98308594 15.86515625 3.88414063 15.8084375 4.8125 15.75 C5.70582031 15.70359375 6.59914063 15.6571875 7.51953125 15.609375 C10.10768894 15.19734238 10.10768894 15.19734238 11.8125 13.21875 C13.11092094 10.79275298 13.32347216 9.46944314 13.1875 6.75 C13.125625 5.5125 13.06375 4.275 13 3 C8.71 2.34 4.42 1.68 0 1 C0 0.67 0 0.34 0 0 Z " fill="#BF9345" transform="translate(1055,1495)"/>
<path d="M0 0 C1.18851563 0.00902344 2.37703125 0.01804687 3.6015625 0.02734375 C4.51679687 0.03894531 5.43203125 0.05054688 6.375 0.0625 C7.77954548 6.18230533 8.60768915 11.77989294 8.375 18.0625 C6.36697382 16.05447382 5.7688289 14.80898196 4.6875 12.25 C1.90485682 6.5075416 -2.89235634 3.58486321 -8.625 1.0625 C-5.74084117 -0.37957941 -3.20778472 -0.03144887 0 0 Z " fill="#BF9345" transform="translate(951.625,1389.9375)"/>
<path d="M0 0 C0.33 0.99 0.66 1.98 1 3 C0.67 3.66 0.34 4.32 0 5 C-0.46588282 10.88165736 -0.46588282 10.88165736 2 16 C2.99 16.66 3.98 17.32 5 18 C-1.6 18 -8.2 18 -15 18 C-14.01 17.34 -13.02 16.68 -12 16 C-5.88051938 11.46379363 -2.49014656 7.22470153 0 0 Z " fill="#BD9245" transform="translate(969,1442)"/>
<path d="M0 0 C0.33 0.99 0.66 1.98 1 3 C0.67 3.66 0.34 4.32 0 5 C-0.46588282 10.88165736 -0.46588282 10.88165736 2 16 C2.99 16.66 3.98 17.32 5 18 C-1.6 18 -8.2 18 -15 18 C-14.01 17.34 -13.02 16.68 -12 16 C-5.88051938 11.46379363 -2.49014656 7.22470153 0 0 Z " fill="#BE9245" transform="translate(1210,1442)"/>
<path d="M0 0 C6.04358985 -0.32248404 10.80745507 -0.54612824 16 3 C17.9375 4.875 17.9375 4.875 19 7 C18.91378072 10.44877113 18.24583917 11.72436215 15.9375 14.3125 C15.298125 14.869375 14.65875 15.42625 14 16 C13.01 15.67 12.02 15.34 11 15 C11.33 14.505 11.66 14.01 12 13.5 C13.43636358 9.90909106 13.12851462 6.85543873 13 3 C8.71 2.34 4.42 1.68 0 1 C0 0.67 0 0.34 0 0 Z " fill="#B28C42" transform="translate(1055,1495)"/>
<path d="M0 0 C5.60109448 -0.28971178 9.14750673 -0.15976306 14 3 C15.9375 4.875 15.9375 4.875 17 7 C16.6875 9.75 16.6875 9.75 16 12 C14.68 12 13.36 12 12 12 C11.6596875 10.3603125 11.6596875 10.3603125 11.3125 8.6875 C10.34033484 4.94339334 10.34033484 4.94339334 7.6875 3.125 C5.10130348 2.04240611 2.77026719 1.39575246 0 1 C0 0.67 0 0.34 0 0 Z " fill="#BE9245" transform="translate(990,1494)"/>
<path d="M0 0 C0.33 0 0.66 0 1 0 C1.03738281 0.62648438 1.07476563 1.25296875 1.11328125 1.8984375 C1.17902344 2.71570312 1.24476563 3.53296875 1.3125 4.375 C1.37050781 5.18710938 1.42851563 5.99921875 1.48828125 6.8359375 C1.82990528 9.37921338 1.82990528 9.37921338 5 11 C5 11.66 5 12.32 5 13 C4.01 13.66 3.02 14.32 2 15 C1.42006301 17.19454681 1.42006301 17.19454681 1.3125 19.625 C1.24675781 20.44226562 1.18101562 21.25953125 1.11328125 22.1015625 C1.07589844 22.72804688 1.03851562 23.35453125 1 24 C0.67 24 0.34 24 0 24 C-0.66 20.7 -1.32 17.4 -2 14 C-3.32 13.67 -4.64 13.34 -6 13 C-6 12.34 -6 11.68 -6 11 C-4.68 10.67 -3.36 10.34 -2 10 C-1.34 6.7 -0.68 3.4 0 0 Z " fill="#B68E43" transform="translate(859,1413)"/>
<path d="M0 0 C1.36948916 3.95630201 0.77791742 5.33249547 0 10 C-5.94 10 -11.88 10 -18 10 C-18 9.67 -18 9.34 -18 9 C-17.11957031 9.020625 -16.23914062 9.04125 -15.33203125 9.0625 C-8.63162923 9.20235886 -8.63162923 9.20235886 -3.0234375 6.15234375 C-1.80792154 4.13714625 -0.81847983 2.20437207 0 0 Z " fill="#AE8A41" transform="translate(1108,1520)"/>
<path d="M0 0 C1.32 0.66 2.64 1.32 4 2 C4 3.32 4 4.64 4 6 C2.02 6.99 2.02 6.99 0 8 C-0.99 7.01 -1.98 6.02 -3 5 C-1.125 1.125 -1.125 1.125 0 0 Z " fill="#BC9144" transform="translate(1229,1436)"/>
<path d="M0 0 C1.32 0.66 2.64 1.32 4 2 C4 3.32 4 4.64 4 6 C2.02 6.99 2.02 6.99 0 8 C-0.99 7.01 -1.98 6.02 -3 5 C-1.125 1.125 -1.125 1.125 0 0 Z " fill="#BC9144" transform="translate(988,1436)"/>
<path d="M0 0 C2.21736634 1.10868317 4.03617993 2.49440461 6 4 C2.76155746 5.07948085 2.11445674 4.88218282 -1 4 C-3.75317974 3.77609683 -6.49305329 3.58606338 -9.25 3.4375 C-9.99507812 3.39431641 -10.74015625 3.35113281 -11.5078125 3.30664062 C-13.338349 3.20103275 -15.16915176 3.10005799 -17 3 C-17 2.67 -17 2.34 -17 2 C-16.02417969 1.93941406 -15.04835938 1.87882812 -14.04296875 1.81640625 C-12.77066406 1.73261719 -11.49835937 1.64882812 -10.1875 1.5625 C-8.92292969 1.48128906 -7.65835938 1.40007812 -6.35546875 1.31640625 C-3.00818107 1.12815453 -3.00818107 1.12815453 0 0 Z " fill="#A78741" transform="translate(793,1418)"/>
<path d="M0 0 C0 0.66 0 1.32 0 2 C-3.92296433 3.30765478 -6.86002433 3.1971417 -11 3 C-11.66 2.34 -12.32 1.68 -13 1 C-11.39796533 0.63631108 -9.79325797 0.28438048 -8.1875 -0.0625 C-7.29417969 -0.25972656 -6.40085937 -0.45695312 -5.48046875 -0.66015625 C-3 -1 -3 -1 0 0 Z " fill="#9A803E" transform="translate(795,1457)"/>
<path d="M0 0 C5.61 0 11.22 0 17 0 C17 1.65 17 3.3 17 5 C16.47921875 4.51917969 15.9584375 4.03835938 15.421875 3.54296875 C12.29094187 1.54826135 9.93631779 1.49681589 6.25 1.3125 C4.49429687 1.21388672 4.49429687 1.21388672 2.703125 1.11328125 C1.81109375 1.07589844 0.9190625 1.03851562 0 1 C0 0.67 0 0.34 0 0 Z " fill="#A1833F" transform="translate(1090,1495)"/>
<path d="M0 0 C0.28875 0.61875 0.5775 1.2375 0.875 1.875 C1.93720042 4.13325765 1.93720042 4.13325765 4 6 C0.7 6 -2.6 6 -6 6 C-5.195625 5.38125 -4.39125 4.7625 -3.5625 4.125 C-0.96125481 2.25835959 -0.96125481 2.25835959 0 0 Z " fill="#C19445" transform="translate(1013,1524)"/>
<path d="M0 0 C8.57142857 -0.28571429 8.57142857 -0.28571429 12 2 C7.48281619 3.36884358 4.41225737 2.47075246 0 1 C0 0.67 0 0.34 0 0 Z " fill="#957D3E" transform="translate(783,1390)"/>
</svg>
