<?xml version="1.0" encoding="UTF-8"?>
<svg version="1.1" xmlns="http://www.w3.org/2000/svg" width="512" height="512">
<path d="M0 0 C1.32136963 0.01571045 1.32136963 0.01571045 2.66943359 0.03173828 C21.66019395 0.55916238 40.58641313 12.45218923 53.55859375 25.89453125 C56.34379159 28.96768181 58.88534053 31.98426079 61.1875 35.4375 C63.8382233 35.99788781 66.38389708 36.40802611 69.0625 36.75 C82.54861142 38.85924257 92.7669342 44.40321117 101.1875 55.4375 C108.96402089 66.53084369 112.65711489 79.28989355 116.36328125 92.17578125 C119.92240934 105.45894488 119.92240934 105.45894488 126.9375 117.0625 C127.37143066 117.5997168 127.80536133 118.13693359 128.25244141 118.69042969 C129.5470372 120.2879353 130.86232784 121.86531332 132.1875 123.4375 C140.96896845 133.89733784 146.01250389 142.32941191 144.96875 156.3828125 C143.28036138 168.81844407 138.30291418 179.55065567 129.3125 188.3125 C128.61125 189.01375 127.91 189.715 127.1875 190.4375 C127.1875 191.0975 127.1875 191.7575 127.1875 192.4375 C128.80549502 194.07425508 128.80549502 194.07425508 130.875 195.75 C134.13347708 198.52995947 137.22812174 201.33376183 140.1875 204.4375 C140.86683594 205.14519531 141.54617188 205.85289062 142.24609375 206.58203125 C154.95626552 220.19241754 163.66057772 236.42276426 165.5625 255.125 C164.1430124 267.66380715 157.81678156 277.44585136 148.1875 285.4375 C130.77409885 298.04352046 106.14368485 303.29272103 84.95068359 300.10058594 C74.88889461 298.16588549 63.07660124 295.26562156 56.80859375 286.51171875 C52.01489624 279.04119869 50.94455836 271.9224129 52.63671875 263.09375 C53.09081256 261.52213456 53.62844174 259.97491021 54.1875 258.4375 C53.23875 258.7675 52.29 259.0975 51.3125 259.4375 C43.97389928 261.4792881 37.24478082 261.20937688 30.4140625 257.7578125 C16.35027366 249.41823245 10.42880421 236.94139755 6.05859375 221.5703125 C4.83645599 218.57799314 3.02915762 216.08135205 1.1875 213.4375 C1.20844727 214.23220703 1.22939453 215.02691406 1.25097656 215.84570312 C1.77233332 238.64021237 0.21880202 257.89054697 -12.8125 277.4375 C-13.74148988 281.00382357 -13.76800258 283.8743393 -12.8125 287.4375 C-10.76672631 289.34227106 -10.76672631 289.34227106 -8.05078125 290.80859375 C-7.05038818 291.40236816 -6.04999512 291.99614258 -5.01928711 292.60791016 C-3.96104736 293.2116748 -2.90280762 293.81543945 -1.8125 294.4375 C-0.29378296 295.32961182 -0.29378296 295.32961182 1.25561523 296.23974609 C4.43002358 298.0966786 7.61917124 299.92581868 10.8125 301.75 C13.10962481 303.06987782 15.40649963 304.39019084 17.703125 305.7109375 C18.81107422 306.34741211 19.91902344 306.98388672 21.06054688 307.63964844 C33.75300896 314.93721955 46.15652464 322.38912547 58.0625 330.9375 C61.90065472 333.65798407 65.88466552 335.98268789 70 338.25 C86.65484084 347.53087269 101.12715375 359.17085625 106.5234375 378.0078125 C107.84351269 382.79450349 109.04028754 387.60678138 110.1875 392.4375 C110.43757813 393.48164063 110.68765625 394.52578125 110.9453125 395.6015625 C113.16289787 405.69001427 113.16289787 405.69001427 112.1875 410.4375 C110.09649537 412.74168051 108.50276845 414.16208111 106 415.875 C105.36505615 416.33890137 104.7301123 416.80280273 104.07592773 417.28076172 C102.13006285 418.6920271 100.16114488 420.06546616 98.1875 421.4375 C97.08713096 422.2311206 95.98808668 423.02658253 94.890625 423.82421875 C86.93135648 429.49668251 78.67209338 434.59956261 70.1875 439.4375 C69.49479004 439.83582031 68.80208008 440.23414063 68.08837891 440.64453125 C30.81116536 461.85441568 -11.75720702 471.65563211 -54.4375 471.6875 C-55.66137421 471.68851212 -55.66137421 471.68851212 -56.90997314 471.68954468 C-119.64947347 471.6075553 -175.56935294 448.60837383 -223.8125 409.4375 C-219.93854421 384.43914917 -216.37533785 363.03667321 -194.95703125 347.296875 C-184.99363621 340.25913865 -174.31622415 333.45834112 -163.27734375 328.24609375 C-159.4440718 326.2451863 -158.26798352 324.54386564 -156.00390625 321.046875 C-153.58136181 317.77445432 -150.33718918 316.67378951 -146.41796875 316.06640625 C-145.55816406 315.94136719 -144.69835937 315.81632812 -143.8125 315.6875 C-138.87031186 314.81708478 -137.21389699 313.09769598 -134.28125 309.1875 C-130.91703995 305.17907951 -126.70827657 303.71231773 -121.6328125 302.9765625 C-118.69027733 302.72038885 -115.76415938 302.53588865 -112.8125 302.4375 C-112.668125 301.15875 -112.52375 299.88 -112.375 298.5625 C-110.96702747 292.1245966 -106.69615589 287.6657389 -101.8125 283.4375 C-100.1625 282.7775 -98.5125 282.1175 -96.8125 281.4375 C-96.8125 276.4875 -96.8125 271.5375 -96.8125 266.4375 C-99.08125 266.52 -101.35 266.6025 -103.6875 266.6875 C-115.34416909 266.82616482 -123.12416475 262.49096016 -131.58203125 254.8359375 C-148.218154 237.78672818 -152.01216747 210.16151431 -153.9375 187.5625 C-154.02765381 186.54406006 -154.11780762 185.52562012 -154.21069336 184.47631836 C-154.60716798 179.61844049 -154.851919 174.86873354 -154.6640625 169.99609375 C-154.10179435 161.99974743 -154.10179435 161.99974743 -157.06396484 154.90478516 C-160.37204008 152.12255113 -164.1373307 150.29274037 -168.00292969 148.41015625 C-174.81505836 144.74859113 -182.88111756 137.15688412 -185.41796875 129.64453125 C-187.90012963 115.75917584 -184.4702407 102.57692728 -177.1875 90.8125 C-163.49338154 77.11838154 -140.37614997 76.6230242 -122.1328125 76.390625 C-121.36710937 76.40609375 -120.60140625 76.4215625 -119.8125 76.4375 C-119.64234375 75.19355469 -119.4721875 73.94960937 -119.296875 72.66796875 C-115.7726951 47.9788549 -115.7726951 47.9788549 -108.0078125 41.00390625 C-98.80930105 34.44055555 -90.47899211 32.24165105 -79.4375 32.25 C-78.55932617 32.24935547 -77.68115234 32.24871094 -76.77636719 32.24804688 C-68.99104537 32.31021641 -61.48494723 33.13550896 -53.8125 34.4375 C-53.46058594 33.83421875 -53.10867188 33.2309375 -52.74609375 32.609375 C-49.35057838 27.11271827 -46.78550593 23.99735969 -40.8125 21.4375 C-39.719375 21.293125 -38.62625 21.14875 -37.5 21 C-36.613125 20.814375 -35.72625 20.62875 -34.8125 20.4375 C-33.66229475 18.19006244 -33.66229475 18.19006244 -32.8125 15.4375 C-25.01340254 4.32969453 -13.22947531 -0.16655353 0 0 Z " fill="#FE9EB6" transform="translate(311.8125,40.5625)"/>
<path d="M0 0 C1.32136963 0.01571045 1.32136963 0.01571045 2.66943359 0.03173828 C21.66019395 0.55916238 40.58641313 12.45218923 53.55859375 25.89453125 C56.34379159 28.96768181 58.88534053 31.98426079 61.1875 35.4375 C63.8382233 35.99788781 66.38389708 36.40802611 69.0625 36.75 C82.54861142 38.85924257 92.7669342 44.40321117 101.1875 55.4375 C108.96402089 66.53084369 112.65711489 79.28989355 116.36328125 92.17578125 C119.92240934 105.45894488 119.92240934 105.45894488 126.9375 117.0625 C127.37143066 117.5997168 127.80536133 118.13693359 128.25244141 118.69042969 C129.5470372 120.2879353 130.86232784 121.86531332 132.1875 123.4375 C140.96896845 133.89733784 146.01250389 142.32941191 144.96875 156.3828125 C143.28036138 168.81844407 138.30291418 179.55065567 129.3125 188.3125 C128.61125 189.01375 127.91 189.715 127.1875 190.4375 C127.1875 191.0975 127.1875 191.7575 127.1875 192.4375 C128.80549502 194.07425508 128.80549502 194.07425508 130.875 195.75 C134.13347708 198.52995947 137.22812174 201.33376183 140.1875 204.4375 C140.86683594 205.14519531 141.54617188 205.85289062 142.24609375 206.58203125 C154.95626552 220.19241754 163.66057772 236.42276426 165.5625 255.125 C164.1430124 267.66380715 157.81678156 277.44585136 148.1875 285.4375 C130.77409885 298.04352046 106.14368485 303.29272103 84.95068359 300.10058594 C74.88889461 298.16588549 63.07660124 295.26562156 56.80859375 286.51171875 C52.01489624 279.04119869 50.94455836 271.9224129 52.63671875 263.09375 C53.09081256 261.52213456 53.62844174 259.97491021 54.1875 258.4375 C53.23875 258.7675 52.29 259.0975 51.3125 259.4375 C43.97389928 261.4792881 37.24478082 261.20937688 30.4140625 257.7578125 C16.35027366 249.41823245 10.42880421 236.94139755 6.05859375 221.5703125 C4.83645599 218.57799314 3.02915762 216.08135205 1.1875 213.4375 C1.20844727 214.23220703 1.22939453 215.02691406 1.25097656 215.84570312 C1.82876732 241.10759284 -0.29908091 263.21498533 -17.55859375 283.0859375 C-20.78155065 286.44853725 -24.17344246 289.53220338 -27.8125 292.4375 C-27.8125 289.04683105 -27.03661444 287.52371063 -25.5625 284.5 C-17.63570881 267.52045297 -13.90550359 246.49295684 -19.4375 228.125 C-22.83499992 219.52903316 -27.30580005 211.36272003 -31.49975586 203.13256836 C-39.31152642 187.74794478 -45.45784041 172.60121705 -47.8125 155.4375 C-47.99554688 154.34050781 -48.17859375 153.24351562 -48.3671875 152.11328125 C-48.91913745 147.5572733 -49.00336072 143.08528076 -49 138.5 C-49.00064453 137.58645752 -49.00128906 136.67291504 -49.00195312 135.73168945 C-48.9389468 127.51437644 -48.09772795 119.55050141 -46.8125 111.4375 C-47.72128906 111.95699219 -48.63007813 112.47648437 -49.56640625 113.01171875 C-71.723896 125.40670597 -94.07936963 128.71815098 -118.859375 122.4140625 C-131.74665362 118.78115734 -131.74665362 118.78115734 -144.8125 119.4375 C-149.32221869 123.60130276 -150.72738331 127.37268162 -151.5625 133.4375 C-151.67827393 134.17282959 -151.79404785 134.90815918 -151.91333008 135.66577148 C-152.94860228 142.55942271 -153.49249962 149.47473315 -153.8125 156.4375 C-166.15783034 151.84955856 -177.94795179 142.730789 -184.8125 131.4375 C-188.47530507 120.5908708 -185.6374774 107.07085142 -180.875 97 C-176.2771015 88.71010866 -170.34588049 84.38784192 -161.41015625 81.23828125 C-148.0499965 77.52942369 -133.66421414 76.15766739 -119.8125 76.4375 C-119.64234375 75.19355469 -119.4721875 73.94960937 -119.296875 72.66796875 C-115.7726951 47.9788549 -115.7726951 47.9788549 -108.0078125 41.00390625 C-98.80930105 34.44055555 -90.47899211 32.24165105 -79.4375 32.25 C-78.55932617 32.24935547 -77.68115234 32.24871094 -76.77636719 32.24804688 C-68.99104537 32.31021641 -61.48494723 33.13550896 -53.8125 34.4375 C-53.46058594 33.83421875 -53.10867188 33.2309375 -52.74609375 32.609375 C-49.35057838 27.11271827 -46.78550593 23.99735969 -40.8125 21.4375 C-39.719375 21.293125 -38.62625 21.14875 -37.5 21 C-36.613125 20.814375 -35.72625 20.62875 -34.8125 20.4375 C-33.66229475 18.19006244 -33.66229475 18.19006244 -32.8125 15.4375 C-25.01340254 4.32969453 -13.22947531 -0.16655353 0 0 Z " fill="#3C3277" transform="translate(311.8125,40.5625)"/>
<path d="M0 0 C1.16902043 3.47436142 0.78586445 5.87741221 0.0625 9.4375 C-5.3073879 42.28208832 5.33182358 70.32906936 19.6640625 99.296875 C21.32787645 102.66342253 22.96042474 106.04110044 24.5625 109.4375 C24.97628906 110.30246094 25.39007813 111.16742188 25.81640625 112.05859375 C29.26673085 120.6331628 30.4767665 128.1255556 30.375 137.375 C30.38660156 138.42171875 30.39820313 139.4684375 30.41015625 140.546875 C30.3732288 150.517286 28.16543879 159.64091383 24.5 168.875 C24.0978125 169.90367187 23.695625 170.93234375 23.28125 171.9921875 C21.97283931 175.06376138 20.52460828 178.03055945 19 181 C23.82231621 176.95547672 28.05531737 172.90096933 32 168 C32.33 168 32.66 168 33 168 C33.0648433 171.68931348 33.04017655 175.37295317 33 179.0625 C33.01933594 180.10083984 33.03867187 181.13917969 33.05859375 182.20898438 C32.91415648 189.79194129 32.91415648 189.79194129 30.31494141 193.22680664 C25.74022409 197.33357006 20.73325418 199.87418665 15 202 C14.01 202.391875 13.02 202.78375 12 203.1875 C-4.2008862 207.57524001 -26.15999763 206.58472354 -41.0078125 198.3359375 C-43.76603155 196.48630826 -45.83431379 194.51499044 -48 192 C-48.33 191.67 -48.66 191.34 -49 191 C-50.25501802 179.37946278 -50.11416472 167.67017122 -50 156 C-50.96679688 156.04640625 -51.93359375 156.0928125 -52.9296875 156.140625 C-66.29393652 156.51111903 -74.86140634 153.36605607 -84.76953125 144.3984375 C-106.43853888 122.19137325 -108.38343923 81.88674062 -108.23852539 52.95947266 C-108.08149339 44.64653568 -107.28630519 36.39418496 -106.26464844 28.14697266 C-106.03466935 26.28125674 -105.83136195 24.41229066 -105.6328125 22.54296875 C-104.93820402 17.36175652 -103.85599054 12.96028896 -100.05078125 9.19140625 C-92.6023909 4.86424614 -82.49025758 8.43251944 -74.75 10.4375 C-73.92290527 10.66663086 -73.09581055 10.89576172 -72.24365234 11.13183594 C-57.02719624 15.34057834 -39.0144917 16.25717497 -24 11 C-22.93523437 10.63648438 -21.87046875 10.27296875 -20.7734375 9.8984375 C-13.46071956 7.24393801 -6.71506993 3.91600271 0 0 Z " fill="#FEC3C2" transform="translate(265,151)"/>
<path d="M0 0 C17.78381559 9.39068018 39.2601034 20.82727812 46 41 C47.88436036 47.27886269 49.48560478 53.62313656 51 60 C51.25007813 61.04414063 51.50015625 62.08828125 51.7578125 63.1640625 C53.97539787 73.25251427 53.97539787 73.25251427 53 78 C50.90899537 80.30418051 49.31526845 81.72458111 46.8125 83.4375 C46.17755615 83.90140137 45.5426123 84.36530273 44.88842773 84.84326172 C42.94256285 86.2545271 40.97364488 87.62796616 39 89 C37.89963096 89.7936206 36.80058668 90.58908253 35.703125 91.38671875 C27.74385648 97.05918251 19.48459338 102.16206261 11 107 C10.30729004 107.39832031 9.61458008 107.79664063 8.90087891 108.20703125 C-28.37633464 129.41691568 -70.94470702 139.21813211 -113.625 139.25 C-114.84887421 139.25101212 -114.84887421 139.25101212 -116.09747314 139.25204468 C-178.83697347 139.1700553 -234.75685294 116.17087383 -283 77 C-279.06057835 51.5792028 -275.34789838 30.58087445 -253.703125 14.609375 C-249.66690285 11.71755607 -245.51321778 9.02065121 -241.3125 6.375 C-240.61713135 5.93687988 -239.9217627 5.49875977 -239.20532227 5.04736328 C-234.25719531 2 -234.25719531 2 -232 2 C-231.91363281 2.90878906 -231.82726562 3.81757813 -231.73828125 4.75390625 C-228.79620388 31.07065332 -215.9544299 52.03489027 -198 71 C-197.18015625 71.88429688 -196.3603125 72.76859375 -195.515625 73.6796875 C-174.99588862 95.11006307 -144.70760871 112.21588633 -114.62890625 113.23828125 C-97.87797635 113.54299403 -84.08173382 111.80485464 -69 104 C-68.12214844 103.58234375 -67.24429688 103.1646875 -66.33984375 102.734375 C-36.2153634 87.65046254 -18.2129354 54.54310512 -6.5 24.4375 C-6.07831543 23.35533203 -5.65663086 22.27316406 -5.22216797 21.15820312 C-1.34278284 10.85992624 -1.34278284 10.85992624 0 0 Z " fill="#3C3277" transform="translate(371,373)"/>
<path d="M0 0 C5.39937195 2.31401655 9.1033727 6.93326104 12 12 C14.69348729 21.18381812 14.53324278 34.29130718 10.33203125 42.88671875 C6.63048347 48.7592623 2.6903194 53.56715658 -4 56 C-4.99 56 -5.98 56 -7 56 C-8.26821716 51.83884155 -9.53147419 47.67621853 -10.7902832 43.51220703 C-11.21863105 42.09773815 -11.64829922 40.68366837 -12.0793457 39.27001953 C-12.70096158 37.23054456 -13.31771488 35.18965122 -13.93359375 33.1484375 C-14.30540771 31.92302246 -14.67722168 30.69760742 -15.06030273 29.43505859 C-16.7800591 23.14849791 -17.208243 17.22233528 -17.25 10.75 C-17.270625 9.9353125 -17.29125 9.120625 -17.3125 8.28125 C-17.328125 5.921875 -17.328125 5.921875 -17 2 C-11.90379438 -1.39747041 -5.9471188 -0.53503491 0 0 Z " fill="#FCC2C2" transform="translate(315,185)"/>
<path d="M0 0 C2.97541774 2.92342015 5.86566955 5.90678024 8.70703125 8.9609375 C9.37669922 9.68023437 10.04636719 10.39953125 10.73632812 11.140625 C12.11111891 12.62017406 13.48355111 14.10191852 14.85351562 15.5859375 C34.09844843 36.21208557 60.62666841 55.36683789 89 60 C90.093125 60.17917969 91.18625 60.35835938 92.3125 60.54296875 C113.1638429 63.12729833 130.06326215 58.44388464 148 48 C149.32639451 47.31963259 150.65624375 46.64540017 152 46 C144.34255089 56.47763159 131.97429303 62.76638181 120 67 C119.04996094 67.33902344 118.09992188 67.67804688 117.12109375 68.02734375 C95.42812826 74.57445573 72.18858345 68.17675472 52.86401367 57.82324219 C32.66059075 46.63838875 8.93090094 28.1400171 1.12890625 5.46875 C0.66850256 3.66523763 0.31743751 1.83408338 0 0 Z " fill="#D84F9F" transform="translate(154,371)"/>
<path d="M0 0 C0.64324219 0.4125 1.28648437 0.825 1.94921875 1.25 C4.96103232 3.17481095 7.98000118 5.0880583 11 7 C12.03382813 7.66 13.06765625 8.32 14.1328125 9 C34.26047042 21.66014847 56.20645634 31.4040132 80.35546875 25.90625 C96.34798792 21.76888186 109.73201898 14.71956749 123 5 C123 9.0704296 121.41867911 10.01997897 118.68286133 12.83618164 C117.75703247 13.75258423 117.75703247 13.75258423 116.8125 14.6875 C116.18045654 15.31454834 115.54841309 15.94159668 114.8972168 16.58764648 C109.11944661 22.156677 103.13731493 26.27814259 96 30 C94.56140625 30.75216797 94.56140625 30.75216797 93.09375 31.51953125 C77.96185577 38.89420442 57.22140977 40.08527236 41.1875 34.875 C38.76871713 33.97616211 36.369804 33.02100399 34 32 C32.90429688 31.53078125 31.80859375 31.0615625 30.6796875 30.578125 C18.13381765 24.72967439 6.56051756 15.40009913 0 3 C0 2.01 0 1.02 0 0 Z " fill="#D84E9F" transform="translate(201,345)"/>
<path d="M0 0 C5.49345341 4.39476273 9.70446292 8.93226799 11 16 C11.8 24.8 11.8 24.8 9 29 C8.42894531 28.38253906 7.85789062 27.76507813 7.26953125 27.12890625 C-4.70174706 14.62472525 -19.49970488 4.47706383 -37 2 C-37.763125 1.89042969 -38.52625 1.78085938 -39.3125 1.66796875 C-46.19864591 0.84030698 -53.07393521 0.90229689 -60 1 C-59.25088866 -3.75242676 -57.52050908 -6.73364532 -54 -10 C-37.9601902 -19.49294866 -14.16296102 -9.56459705 0 0 Z " fill="#FC9DB6" transform="translate(319,75)"/>
<path d="M0 0 C3.76011684 2.78248646 7.49538535 5.57525844 11.12109375 8.53125 C27.57537256 21.88620686 46.31010959 32.79327261 67 38 C67.83917969 38.22429687 68.67835938 38.44859375 69.54296875 38.6796875 C93.0815586 44.00780241 116.2064823 37.79553291 136.40625 25.55078125 C138.56962526 24.25731743 140.72837644 23.08759335 143 22 C143 24 143 24 140.81640625 26.34765625 C122.0879576 43.98512731 104.27089468 48.91104031 79.15527344 48.17919922 C71.85078896 47.76435152 64.96960542 46.15472534 58 44 C57.32710937 43.79632813 56.65421875 43.59265625 55.9609375 43.3828125 C34.49591138 36.66981205 10.83355419 22.2226345 0 2 C0 1.34 0 0.68 0 0 Z " fill="#D84F9F" transform="translate(175,360)"/>
<path d="M0 0 C-5.33676289 15.12529783 -20.96831377 27.08203669 -34.95068359 33.95947266 C-42.13002872 37.25780173 -49.02372511 39.72013071 -57 40 C-57 35.05 -57 30.1 -57 25 C-53.396128 23.97032228 -49.79220704 22.94081307 -46.1875 21.9140625 C-31.7377957 17.55957073 -17.16495283 11.08500961 -4.94921875 2.12890625 C-2 0 -2 0 0 0 Z " fill="#423779" transform="translate(272,282)"/>
</svg>
