<?xml version="1.0" encoding="UTF-8"?>
<svg version="1.1" xmlns="http://www.w3.org/2000/svg" width="512" height="512">
<path d="M0 0 C5.14821711 1.67750895 9.46410946 0.97035966 14.4609375 -0.8203125 C26.9321088 -4.81108732 40.50994615 -3.06646724 52.0859375 2.6796875 C61.2724445 7.87107966 69.69778139 14.49942015 76.53125 22.56640625 C84.19711683 31.47278369 92.85794164 34.9268505 103.68359375 39.109375 C118.23973678 44.7845181 132.48542857 52.42217073 145.0859375 61.6796875 C145.68390137 62.11216797 146.28186523 62.54464844 146.89794922 62.99023438 C165.58281088 76.5268944 182.88651798 91.39646799 197.0859375 109.6796875 C198.09191104 110.93402451 199.09846091 112.18789945 200.10546875 113.44140625 C234.27691215 156.45728363 251.61714333 209.64635694 251.3984375 264.3046875 C251.39628235 265.27524078 251.3941272 266.24579407 251.39190674 267.24575806 C251.3408709 281.57399648 250.99352188 295.60154532 248.0859375 309.6796875 C247.88726074 310.66275879 247.68858398 311.64583008 247.48388672 312.65869141 C240.76289934 344.97480974 228.48695643 376.77777392 209.0859375 403.6796875 C208.61478516 404.34178223 208.14363281 405.00387695 207.65820312 405.68603516 C194.32099045 424.32519052 179.20291805 441.56315697 161.0859375 455.6796875 C159.8304664 456.68717265 158.5752765 457.69500827 157.3203125 458.703125 C126.09433176 483.50340828 89.16625875 499.27007639 50.0859375 506.6796875 C49.3026709 506.84194824 48.5194043 507.00420898 47.71240234 507.17138672 C18.93858535 513.00562582 -14.31890842 511.85825827 -42.9140625 505.6796875 C-43.94321777 505.46006348 -44.97237305 505.24043945 -46.03271484 505.01416016 C-75.91882162 498.45379525 -104.6142234 487.07598741 -129.9140625 469.6796875 C-130.50928711 469.27685547 -131.10451172 468.87402344 -131.71777344 468.45898438 C-140.60177714 462.42149774 -148.85325025 455.77024127 -156.9140625 448.6796875 C-158.27724609 447.48472656 -158.27724609 447.48472656 -159.66796875 446.265625 C-167.65971143 439.16456509 -174.94288839 431.87048104 -181.6328125 423.51953125 C-183.10998883 421.68064907 -184.6088579 419.85889927 -186.1328125 418.05859375 C-196.32704696 405.97986172 -204.57291286 392.64623247 -211.9140625 378.6796875 C-212.31093262 377.93074219 -212.70780273 377.18179687 -213.11669922 376.41015625 C-231.20312809 341.80129751 -239.38208912 303.92345051 -239.2265625 265.0546875 C-239.22440735 264.08413422 -239.2222522 263.11358093 -239.22003174 262.11361694 C-239.1689959 247.78537852 -238.82164688 233.75782968 -235.9140625 219.6796875 C-235.71538574 218.69661621 -235.51670898 217.71354492 -235.31201172 216.70068359 C-227.16660096 177.53559622 -210.62860624 140.47963716 -184.9140625 109.6796875 C-184.44000977 109.10412109 -183.96595703 108.52855469 -183.47753906 107.93554688 C-173.04378224 95.2923706 -161.87738423 83.7562191 -148.9140625 73.6796875 C-147.93179688 72.89207031 -146.94953125 72.10445313 -145.9375 71.29296875 C-128.08634842 57.08731666 -107.68276032 44.19326638 -86.00390625 36.89379883 C-74.36721856 32.93229966 -67.69522334 26.13977717 -59.3828125 17.2734375 C-44.08340964 1.10803071 -21.74289187 -7.79182132 0 0 Z " fill="#FEC6AA" transform="translate(249.9140625,2.3203125)"/>
<path d="M0 0 C20.67496895 4.98692718 41.89237069 16.61860291 59 29 C59.60376465 29.43538086 60.2075293 29.87076172 60.82958984 30.31933594 C79.5065219 43.85442174 96.80527048 58.72281934 111 77 C112.00597354 78.25433701 113.01252341 79.50821195 114.01953125 80.76171875 C148.19097465 123.77759613 165.53120583 176.96666944 165.3125 231.625 C165.30926727 233.08082993 165.30926727 233.08082993 165.30596924 234.56607056 C165.2549334 248.89430898 164.90758438 262.92185782 162 277 C161.80132324 277.98307129 161.60264648 278.96614258 161.39794922 279.97900391 C155.79950486 306.89766634 146.55519825 335.94681984 131 359 C130.34 359 129.68 359 129 359 C128.67128906 357.88625 128.34257812 356.7725 128.00390625 355.625 C120.30678369 330.54709961 105.21470939 307.87944429 81.625 295.18359375 C78.24377288 293.44674726 74.82618227 291.79014275 71.39746094 290.14941406 C68.81387062 288.91076404 66.23894469 287.65508297 63.6640625 286.3984375 C61.75561676 285.4731155 59.84675283 284.54865556 57.9375 283.625 C56.49274292 282.92250122 56.49274292 282.92250122 55.01879883 282.20581055 C49.9604968 279.77824275 44.89318434 277.5225346 39.66015625 275.49609375 C22.35316619 268.72379329 22.35316619 268.72379329 18.625 261.9375 C18.18800781 260.93203125 17.75101562 259.9265625 17.30078125 258.890625 C9.67621601 241.94714668 -15.13569183 235.32152437 -31 229 C-29.87548273 226.0280615 -28.77706209 223.66559313 -27 221 C-25.01074219 220.40332031 -25.01074219 220.40332031 -22.546875 220.078125 C-21.16918945 219.87630615 -21.16918945 219.87630615 -19.76367188 219.67041016 C-18.76916016 219.5316748 -17.77464844 219.39293945 -16.75 219.25 C-4.70420581 217.36287605 6.53528038 214.095027 18 210 C18.76973145 209.72865234 19.53946289 209.45730469 20.33251953 209.17773438 C31.77307342 205.09525421 31.77307342 205.09525421 39.71484375 196.12109375 C41.0970472 192.76431393 41.88499271 189.62812409 42.5625 186.0625 C42.79066406 184.89847656 43.01882813 183.73445312 43.25390625 182.53515625 C43.50743816 181.0242407 43.75541082 179.51238896 44 178 C44.17281494 177.01 44.34562988 176.02 44.52368164 175 C46.23842308 164.03300694 46.3384821 153.16666698 46.31567383 142.08691406 C46.31252603 138.90134012 46.33601159 135.71670913 46.36132812 132.53125 C46.41404092 115.56175446 44.86860433 98.9385577 40.75 82.4375 C40.53802979 81.58003174 40.32605957 80.72256348 40.10766602 79.83911133 C32.92233497 51.7332246 20.11649827 25.99345487 1.36328125 3.8203125 C0 2 0 2 0 0 Z " fill="#FEBAE4" transform="translate(336,35)"/>
<path d="M0 0 C-0.76183594 0.98097656 -1.52367187 1.96195313 -2.30859375 2.97265625 C-8.78395157 11.39967933 -14.74424587 19.90786576 -19.96630859 29.16748047 C-20.64677674 30.37380875 -21.33443956 31.57611139 -22.02978516 32.77392578 C-40.01382363 63.79660717 -47.2388721 100.07187403 -47.1875 135.625 C-47.18722809 136.33409515 -47.18695618 137.04319031 -47.18667603 137.77377319 C-47.16806534 148.33347508 -46.69081906 158.56103013 -45 169 C-44.77689073 170.62718791 -44.5570146 172.25482139 -44.33984375 173.8828125 C-42.34505613 190.13657614 -42.34505613 190.13657614 -33 203 C-30.03098495 204.59090816 -26.95871366 205.80493825 -23.8125 207 C-22.9268335 207.34321289 -22.04116699 207.68642578 -21.12866211 208.04003906 C-10.77529782 211.96536273 -0.31229959 215.14278383 10.6171875 216.98046875 C11.564729 217.14256836 12.51227051 217.30466797 13.48852539 217.47167969 C15.32491979 217.77459665 17.16541393 218.05392927 19.00952148 218.30566406 C23.34425109 219.00361841 26.16240087 219.60488463 29.10546875 223.00390625 C31 226 31 226 31 228 C30.1435791 228.35715088 29.2871582 228.71430176 28.40478516 229.08227539 C25.17637908 230.4353285 21.95287261 231.79899342 18.73193359 233.16967773 C17.34698525 233.75655561 15.96030425 234.33936435 14.57177734 234.91772461 C3.28440584 239.62419179 -8.38315046 245.00170371 -16 255 C-16.36480469 255.89847656 -16.72960937 256.79695313 -17.10546875 257.72265625 C-20.75598001 266.42772156 -25.78134786 268.90733301 -34.25 272.4375 C-37.63583663 273.81278368 -41.0284392 275.16972586 -44.42431641 276.52001953 C-50.5490101 279.05503887 -56.48322124 281.96670336 -62.4375 284.875 C-63.54319336 285.4105249 -64.64888672 285.9460498 -65.78808594 286.49780273 C-68.86294367 287.99006816 -71.93173453 289.49423926 -75 291 C-76.38493652 291.66841919 -76.38493652 291.66841919 -77.79785156 292.3503418 C-101.02817547 303.68627231 -117.30736701 323.93004841 -126 348 C-127.15275043 351.63939779 -128.17106418 355.27373611 -129 359 C-147.54069183 342.18150079 -156.49025805 303.29782411 -161.3125 279.625 C-161.45977539 278.90248047 -161.60705078 278.17996094 -161.75878906 277.43554688 C-164.65286239 262.10441368 -165.37478976 246.94227809 -165.3125 231.375 C-165.31034485 230.40444672 -165.3081897 229.43389343 -165.30596924 228.43392944 C-165.2549334 214.10569102 -164.90758438 200.07814218 -162 186 C-161.80132324 185.01692871 -161.60264648 184.03385742 -161.39794922 183.02099609 C-153.25253846 143.85590872 -136.71454374 106.79994966 -111 76 C-110.52594727 75.42443359 -110.05189453 74.84886719 -109.56347656 74.25585938 C-99.12971974 61.6126831 -87.96332173 50.0765316 -75 40 C-73.52660156 38.81857422 -73.52660156 38.81857422 -72.0234375 37.61328125 C-15.20453269 -7.60226635 -15.20453269 -7.60226635 0 0 Z " fill="#FEBAE4" transform="translate(176,36)"/>
<path d="M0 0 C5.14821711 1.67750895 9.46410946 0.97035966 14.4609375 -0.8203125 C26.9321088 -4.81108732 40.50994615 -3.06646724 52.0859375 2.6796875 C60.30903936 7.32664924 67.31156626 13.14032461 74.0859375 19.6796875 C74.59753418 20.17082031 75.10913086 20.66195313 75.63623047 21.16796875 C77.27402972 22.74652324 78.90082976 24.33552936 80.5234375 25.9296875 C81.03197266 26.42500977 81.54050781 26.92033203 82.06445312 27.43066406 C84.96534774 30.32571795 87.04771084 33.14641641 89.0859375 36.6796875 C90.55152565 38.74277002 92.05911074 40.77222036 93.56518555 42.8059082 C99.71826744 51.13107989 105.36293185 59.44784591 110.0859375 68.6796875 C110.68317627 69.84540283 110.68317627 69.84540283 111.29248047 71.03466797 C119.12674578 86.51038252 124.86759302 101.86533708 128.8359375 118.7421875 C129.13431519 119.99793579 129.13431519 119.99793579 129.4387207 121.27905273 C132.8625833 136.68569999 133.43424094 152.01618136 133.40161133 167.74365234 C133.39845563 170.9114849 133.42199259 174.07837596 133.44726562 177.24609375 C133.57940552 220.49932531 133.57940552 220.49932531 123.0859375 234.6796875 C117.74725503 238.83792973 111.76343191 241.14014503 105.3984375 243.2421875 C104.51704102 243.5402832 103.63564453 243.83837891 102.72753906 244.14550781 C100.18373659 245.00088816 97.63530065 245.84106055 95.0859375 246.6796875 C93.88839844 247.08574219 92.69085938 247.49179688 91.45703125 247.91015625 C85.58666521 249.82776017 79.70587491 251.26468926 73.6484375 252.4296875 C72.98553711 252.55762695 72.32263672 252.68556641 71.63964844 252.81738281 C67.74284193 253.51924294 64.04188347 253.80197331 60.0859375 253.6796875 C60.79556641 252.49439453 60.79556641 252.49439453 61.51953125 251.28515625 C70.70562088 235.61687471 77.7456141 219.75097998 83.26171875 202.43359375 C83.711521 201.03403442 83.711521 201.03403442 84.17041016 199.60620117 C84.8192988 197.532007 85.43556569 195.44747897 86.02880859 193.35668945 C86.35059082 192.27476318 86.67237305 191.19283691 87.00390625 190.078125 C87.28387451 189.09118652 87.56384277 188.10424805 87.85229492 187.08740234 C89.0859375 184.6796875 89.0859375 184.6796875 91.5559082 183.39477539 C94.0859375 182.7421875 94.0859375 182.7421875 96.6484375 182.40234375 C100.15814602 181.36180517 101.15663672 179.75334871 103.0859375 176.6796875 C103.9524622 174.12412736 104.66520975 171.72717747 105.2734375 169.1171875 C105.43779297 168.45783203 105.60214844 167.79847656 105.77148438 167.11914062 C106.22089833 165.30874837 106.65406923 163.49434527 107.0859375 161.6796875 C107.281875 160.96425781 107.4778125 160.24882812 107.6796875 159.51171875 C109.07958993 153.19869722 108.68790945 147.09377653 105.37890625 141.4921875 C99.67351359 133.49429567 92.29923648 132.12229657 83.13623047 130.12988281 C58.74747461 124.77469517 39.88450893 111.93890558 22.7734375 94.1796875 C16.78888539 88.185621 12.29500521 86.39610823 3.80859375 86.18359375 C-4.448228 87.68806486 -9.39115401 92.79710016 -14.9140625 98.7421875 C-33.14533608 117.58023568 -53.7517682 126.81389527 -79.12915039 132.14501953 C-85.30574237 133.53032962 -88.83247479 135.93190962 -92.9140625 140.6796875 C-96.54055857 146.42871472 -96.63043983 153.08147527 -95.9140625 159.6796875 C-95.3173764 162.05113224 -94.57663112 164.26950908 -93.69921875 166.55078125 C-92.91767918 168.66988107 -92.43482621 170.72093901 -91.9765625 172.9296875 C-90.82076263 177.00898115 -90.09951913 178.89241294 -86.9140625 181.6796875 C-85.27232499 181.99358994 -83.62575895 182.28268036 -81.9765625 182.5546875 C-79.3046875 183.2734375 -79.3046875 183.2734375 -76.9140625 184.6796875 C-74.72352521 188.69943635 -73.65504656 192.96465806 -72.52246094 197.37109375 C-67.30778433 217.15840596 -59.10325312 236.52702715 -47.9140625 253.6796875 C-54.52936778 254.05609178 -60.55328953 252.67692308 -66.9765625 251.1796875 C-68.11601318 250.91414062 -69.25546387 250.64859375 -70.42944336 250.375 C-78.08780845 248.5201026 -85.55792189 246.33557753 -92.9765625 243.6796875 C-94.28475952 243.21852539 -94.28475952 243.21852539 -95.61938477 242.74804688 C-102.53926004 240.15485533 -110.36768304 236.82619619 -114.2890625 230.2421875 C-116.88788743 224.05225902 -117.79902888 217.26369553 -118.9140625 210.6796875 C-119.20796875 208.978125 -119.20796875 208.978125 -119.5078125 207.2421875 C-128.44137361 152.58981362 -117.94392674 93.25636182 -85.54345703 47.75488281 C-83.51640508 45.01434981 -81.4272908 42.33633009 -79.30078125 39.671875 C-77.49878367 37.4127422 -75.78588864 35.13804276 -74.0859375 32.8046875 C-57.04603625 10.02539963 -29.59140298 -10.60442769 0 0 Z " fill="#945230" transform="translate(249.9140625,2.3203125)"/>
<path d="M0 0 C7.21993289 2.86125099 14.41098352 5.78412424 21.5625 8.8125 C23.02719727 9.41288086 23.02719727 9.41288086 24.52148438 10.02539062 C37.83572427 15.69841458 48.49940389 24.97499607 55 38 C55 38.66 55 39.32 55 40 C55.5347998 40.12665039 56.06959961 40.25330078 56.62060547 40.38378906 C65.32232373 42.70209736 73.1051206 46.75098656 81.125 50.75 C83.937781 52.14536761 86.75309246 53.53549278 89.5703125 54.921875 C90.2639389 55.26424698 90.95756531 55.60661896 91.67221069 55.95936584 C97.21615834 58.67284342 102.83898589 61.17195319 108.54324341 63.52984619 C129.31853565 72.30717551 147.43700517 92.30945227 155.87890625 113.05859375 C156.24886719 114.02925781 156.61882812 114.99992187 157 116 C157.26280762 116.6098877 157.52561523 117.21977539 157.79638672 117.84814453 C162.73902906 129.39413449 162.73902906 129.39413449 161.17578125 134.90625 C159.34213109 137.85429771 157.26139062 140.36467864 155 143 C154.08911734 144.22617525 153.19001524 145.46116048 152.30078125 146.703125 C139.33572543 164.7364793 124.54797426 181.32683224 107 195 C105.7445289 196.00748515 104.489339 197.01532077 103.234375 198.0234375 C75.3477609 220.17153063 31.79571414 246 -5 246 C-4.25987065 238.99106419 -2.9259743 232.12535809 -1.58877563 225.20858765 C2.20287926 205.52076057 5.43140035 185.80364796 7.6875 165.875 C7.80697998 164.82143311 7.92645996 163.76786621 8.04956055 162.68237305 C9.55415713 148.7248156 10.16583389 134.80867415 10.203125 120.77734375 C10.20595238 120.03636507 10.20877975 119.29538639 10.21169281 118.53195381 C10.22653849 114.59934281 10.23585605 110.66676701 10.24023438 106.73413086 C10.24458497 103.5631132 10.25836466 100.39237285 10.28125 97.22143555 C10.39832457 80.60218614 10.22469468 64.07081583 8.796875 47.50390625 C8.69691223 46.20976303 8.59694946 44.91561981 8.49395752 43.58226013 C8.02630338 36.56718357 8.02630338 36.56718357 4.49584961 30.78271484 C3.67221924 30.19441895 2.84858887 29.60612305 2 29 C-3.47293344 22.58814344 -6.58515095 16.79052641 -6.46875 8.19140625 C-5.62227239 4.23412344 -3.06322694 2.48887189 0 0 Z " fill="#FEC739" transform="translate(304,263)"/>
<path d="M0 0 C5.77361568 4.3092376 5.77361568 4.3092376 6.76171875 7.32421875 C6.53546545 14.52860012 4.68859014 21.36552121 -0.59765625 26.57421875 C-1.12230469 27.02410156 -1.64695313 27.47398437 -2.1875 27.9375 C-8.57550856 33.76563073 -7.55568245 46.69439279 -8.11328125 54.7578125 C-8.19757889 55.96559357 -8.28187653 57.17337463 -8.36872864 58.41775513 C-9.19020393 71.2658948 -9.2679188 84.09569897 -9.20581055 96.96582031 C-9.18741126 100.89394603 -9.18530307 104.82183532 -9.18554688 108.75 C-9.15859776 128.92492758 -8.75614084 149.00588634 -6.4375 169.0625 C-6.3575177 169.76637848 -6.2775354 170.47025696 -6.19512939 171.19546509 C-4.16756476 188.7862007 -1.00471678 206.19651617 2.1953125 223.60546875 C2.34730606 224.43740753 2.49929962 225.26934631 2.65589905 226.12649536 C3.35728629 229.88355518 4.13047268 233.58041106 5.11279297 237.2746582 C5.85440756 240.38866399 6.19789439 242.83368982 6 246 C-27.20649975 239.76143665 -59.02373226 228.23662605 -87 209 C-87.59522461 208.59716797 -88.19044922 208.19433594 -88.80371094 207.77929688 C-97.68771464 201.74181024 -105.93918775 195.09055377 -114 188 C-114.90878906 187.20335937 -115.81757812 186.40671875 -116.75390625 185.5859375 C-124.74564893 178.48487759 -132.02882589 171.19079354 -138.71875 162.83984375 C-140.19592633 161.00096157 -141.6947954 159.17921177 -143.21875 157.37890625 C-160.87246617 136.46173902 -160.87246617 136.46173902 -160.5 129 C-159.9375 126.63671875 -159.9375 126.63671875 -159 124 C-158.62875 122.87207031 -158.2575 121.74414062 -157.875 120.58203125 C-152.5599319 105.52036045 -144.14930087 93.28652304 -133 82 C-132.43023437 81.35804688 -131.86046875 80.71609375 -131.2734375 80.0546875 C-120.35056356 68.0115188 -104.68397517 61.84540842 -90.15917969 55.42626953 C-83.98262017 52.63774861 -77.90674926 49.63023827 -71.83789062 46.61547852 C-66.6145514 44.0701022 -61.57695488 42.13648217 -55.92993164 40.73681641 C-53.69330703 40.14242555 -53.69330703 40.14242555 -52.8125 37.375 C-52.544375 36.26125 -52.27625 35.1475 -52 34 C-49.90247326 30.80127172 -47.48311387 27.90544676 -45 25 C-44.4740625 24.37738281 -43.948125 23.75476563 -43.40625 23.11328125 C-35.17954903 14.14053141 -23.28985638 9.5771019 -12.25 5.0625 C-10.47109375 4.32290039 -10.47109375 4.32290039 -8.65625 3.56835938 C-5.77389526 2.37125237 -2.88859132 1.18195916 0 0 Z " fill="#FEC739" transform="translate(207,263)"/>
<path d="M0 0 C1.62049008 2.13248542 3.19625033 4.28194335 4.7265625 6.48046875 C15.09071767 21.2589863 27.47382962 29.30132307 43.3203125 37.45703125 C47.4417647 39.83017063 47.4417647 39.83017063 49 42 C49.39500857 45.04946616 49.13430156 47.91106412 49 51 C54.28 51 59.56 51 65 51 C64.87625 49.618125 64.7525 48.23625 64.625 46.8125 C64.4140625 44.45703125 64.4140625 44.45703125 65 42 C69.08843951 37.87382105 73.51994192 35.58481849 78.75 33.1875 C85.60434139 29.89515853 91.36781574 26.16537259 97 21 C97.70511719 20.37480469 98.41023438 19.74960937 99.13671875 19.10546875 C103.86179525 14.6863972 107.23598651 9.86177136 110.5546875 4.3203125 C112 2 112 2 114 0 C118.28328224 8.56656448 116.16316888 22.76091675 116.16796875 32.23828125 C116.17119825 33.77263924 116.17456344 35.30699695 116.17805481 36.84135437 C116.18399601 40.04243683 116.18590018 43.24349251 116.18530273 46.44458008 C116.18522191 49.6702236 116.19210199 52.89572377 116.20581055 56.12133789 C116.28548933 75.17774957 116.03532411 94.02661229 114 113 C113.88291183 114.11802505 113.88291183 114.11802505 113.76345825 115.25863647 C113.30293864 119.57762862 112.76560976 123.88282434 112.1875 128.1875 C112.01790771 129.47011719 111.84831543 130.75273437 111.67358398 132.07421875 C108.74387946 153.91146561 104.90865061 175.52173529 100 197 C86.52637915 199.26799063 73.43544077 200.48510488 59.77050781 200.39111328 C57.00015078 200.37500088 54.23125167 200.39110118 51.4609375 200.41015625 C38.74938123 200.42276359 26.52824897 199.10885786 14 197 C7.72556126 170.44179689 3.20246367 143.30332916 0.125 116.1875 C0.01720215 115.25067383 -0.0905957 114.31384766 -0.20166016 113.34863281 C-2.26584728 93.41448283 -2.16111614 73.3342279 -2.12695312 53.31958008 C-2.12434496 50.63936714 -2.12922023 47.95918697 -2.13380814 45.27897835 C-2.15106502 33.4229643 -2.15644672 21.57388298 -1.5546875 9.73046875 C-1.51594513 8.95729813 -1.47720276 8.1841275 -1.43728638 7.38752747 C-1.13186686 2.26373371 -1.13186686 2.26373371 0 0 Z " fill="#D3DCFA" transform="translate(199,312)"/>
<path d="M0 0 C0.0093457 1.18625977 0.01869141 2.37251953 0.02832031 3.59472656 C0.35883201 47.42458464 0.35883201 47.42458464 10 90 C10.28891113 90.84643066 10.57782227 91.69286133 10.87548828 92.56494141 C21.1977609 122.23544894 37.15622733 144.33387195 65.24609375 159.1015625 C68.61132237 160.19943851 70.60832629 159.92372957 74 159 C74.99 158.34 75.98 157.68 77 157 C77.12955078 158.03447266 77.12955078 158.03447266 77.26171875 159.08984375 C78.75956463 169.10754695 81.85611075 175.89208306 90 182 C92.51313495 187.02626989 92.24912187 193.48056649 92 199 C90.67845535 202.95384582 88.64732713 205.80716304 86 209 C85.31035156 209.84175781 84.62070312 210.68351563 83.91015625 211.55078125 C73.59345113 223.49930265 62.17010878 231.22032059 47.9609375 237.95703125 C45.84555581 238.95961077 45.84555581 238.95961077 44 241 C43.53993654 243.20250992 43.53993654 243.20250992 43.375 245.625 C43.189375 247.790625 43.189375 247.790625 43 250 C37.72 250 32.44 250 27 250 C26.90234375 247.78645833 26.8046875 245.57291667 26.70703125 243.359375 C25.68478069 239.94810793 23.93377493 238.95318168 21 237 C18.81634991 235.86773699 16.60539258 234.78715772 14.375 233.75 C-1.32538737 226.14499609 -14.13170935 214.7365813 -22 199 C-21.98835317 196.53960664 -21.90424161 194.13900683 -21.75 191.6875 C-21.68296875 190.37136719 -21.6159375 189.05523437 -21.546875 187.69921875 C-20.77208636 182.45832703 -18.54364096 179.40857499 -15 175.625 C-10.42416523 170.3320568 -8.05987738 164.70335777 -8.26171875 157.66015625 C-9.54962851 153.01959251 -12.96165684 150.23113586 -16.28125 146.87890625 C-33.93316524 128.18715118 -42.1859985 98.33861317 -48 74 C-49.19625 73.938125 -50.3925 73.87625 -51.625 73.8125 C-56.47017656 73.2111483 -58.61404889 71.46656899 -62 68 C-64.03711491 64.64958025 -64.74109342 61.1852944 -65.5625 57.375 C-66.42572431 53.06261619 -66.42572431 53.06261619 -68 49 C-68.69770514 41.03006056 -68.32762712 34.31799234 -63.359375 27.87109375 C-57.27652751 21.567685 -50.26326746 20.09402824 -42.01367188 18.41796875 C-30.46669802 16.02121569 -9.56986042 0 0 0 Z " fill="#FEA97B" transform="translate(221,113)"/>
<path d="M0 0 C20.67496895 4.98692718 41.89237069 16.61860291 59 29 C59.60376465 29.43538086 60.2075293 29.87076172 60.82958984 30.31933594 C70.62991401 37.42158528 79.92166274 44.99971529 89 53 C86.91301831 56.68759054 84.82898264 60.33431693 82.5 63.875 C77.47494326 71.94601421 74.95995363 79.5147439 74 89 C73.89171875 90.02867188 73.7834375 91.05734375 73.671875 92.1171875 C73.03307165 104.68999892 76.47649034 116.83378954 79.33569336 128.98657227 C81.08352711 136.91509561 81.28274753 144.59318218 81.3125 152.6875 C81.31692612 153.74321198 81.31692612 153.74321198 81.32144165 154.82025146 C81.33950557 173.9006087 78.31367773 192.44352833 74 211 C71.20356815 223.21050677 69.841461 235.64854659 76 247 C76.556875 248.03125 77.11375 249.0625 77.6875 250.125 C84.58250313 258.69716605 93.83671361 264.50323392 102.87402344 270.57226562 C117.64036151 280.48884177 132.28538417 290.46644674 145 303 C145.7734375 303.75152344 146.546875 304.50304687 147.34375 305.27734375 C151.97293034 310.34273532 151.97293034 310.34273532 152.03515625 314.15234375 C151.30470814 316.94523358 150.21613654 319.37855012 149 322 C148.44420993 323.32136365 147.8924363 324.64442079 147.34375 325.96875 C142.55271051 337.31634789 136.86864081 348.17924068 131 359 C130.34 359 129.68 359 129 359 C128.67128906 357.88625 128.34257812 356.7725 128.00390625 355.625 C120.30678369 330.54709961 105.21470939 307.87944429 81.625 295.18359375 C78.24377288 293.44674726 74.82618227 291.79014275 71.39746094 290.14941406 C68.81387062 288.91076404 66.23894469 287.65508297 63.6640625 286.3984375 C61.75561676 285.4731155 59.84675283 284.54865556 57.9375 283.625 C56.49274292 282.92250122 56.49274292 282.92250122 55.01879883 282.20581055 C49.9604968 279.77824275 44.89318434 277.5225346 39.66015625 275.49609375 C22.35316619 268.72379329 22.35316619 268.72379329 18.625 261.9375 C18.18800781 260.93203125 17.75101562 259.9265625 17.30078125 258.890625 C9.67621601 241.94714668 -15.13569183 235.32152437 -31 229 C-29.87548273 226.0280615 -28.77706209 223.66559313 -27 221 C-25.01074219 220.40332031 -25.01074219 220.40332031 -22.546875 220.078125 C-21.16918945 219.87630615 -21.16918945 219.87630615 -19.76367188 219.67041016 C-18.76916016 219.5316748 -17.77464844 219.39293945 -16.75 219.25 C-4.70420581 217.36287605 6.53528038 214.095027 18 210 C18.76973145 209.72865234 19.53946289 209.45730469 20.33251953 209.17773438 C31.77307342 205.09525421 31.77307342 205.09525421 39.71484375 196.12109375 C41.0970472 192.76431393 41.88499271 189.62812409 42.5625 186.0625 C42.79066406 184.89847656 43.01882813 183.73445312 43.25390625 182.53515625 C43.50743816 181.0242407 43.75541082 179.51238896 44 178 C44.17281494 177.01 44.34562988 176.02 44.52368164 175 C46.23842308 164.03300694 46.3384821 153.16666698 46.31567383 142.08691406 C46.31252603 138.90134012 46.33601159 135.71670913 46.36132812 132.53125 C46.41404092 115.56175446 44.86860433 98.9385577 40.75 82.4375 C40.53802979 81.58003174 40.32605957 80.72256348 40.10766602 79.83911133 C32.92233497 51.7332246 20.11649827 25.99345487 1.36328125 3.8203125 C0 2 0 2 0 0 Z " fill="#FB90CD" transform="translate(336,35)"/>
<path d="M0 0 C-0.76183594 0.98097656 -1.52367187 1.96195313 -2.30859375 2.97265625 C-8.78395157 11.39967933 -14.74424587 19.90786576 -19.96630859 29.16748047 C-20.64677674 30.37380875 -21.33443956 31.57611139 -22.02978516 32.77392578 C-40.01382363 63.79660717 -47.2388721 100.07187403 -47.1875 135.625 C-47.18722809 136.33409515 -47.18695618 137.04319031 -47.18667603 137.77377319 C-47.16806534 148.33347508 -46.69081906 158.56103013 -45 169 C-44.77689073 170.62718791 -44.5570146 172.25482139 -44.33984375 173.8828125 C-42.34505613 190.13657614 -42.34505613 190.13657614 -33 203 C-30.03098495 204.59090816 -26.95871366 205.80493825 -23.8125 207 C-22.9268335 207.34321289 -22.04116699 207.68642578 -21.12866211 208.04003906 C-10.77529782 211.96536273 -0.31229959 215.14278383 10.6171875 216.98046875 C11.564729 217.14256836 12.51227051 217.30466797 13.48852539 217.47167969 C15.32491979 217.77459665 17.16541393 218.05392927 19.00952148 218.30566406 C23.34425109 219.00361841 26.16240087 219.60488463 29.10546875 223.00390625 C31 226 31 226 31 228 C30.1435791 228.35715088 29.2871582 228.71430176 28.40478516 229.08227539 C25.17637908 230.4353285 21.95287261 231.79899342 18.73193359 233.16967773 C17.34698525 233.75655561 15.96030425 234.33936435 14.57177734 234.91772461 C3.28440584 239.62419179 -8.38315046 245.00170371 -16 255 C-16.36480469 255.89847656 -16.72960937 256.79695313 -17.10546875 257.72265625 C-20.75598001 266.42772156 -25.78134786 268.90733301 -34.25 272.4375 C-37.63583663 273.81278368 -41.0284392 275.16972586 -44.42431641 276.52001953 C-50.5490101 279.05503887 -56.48322124 281.96670336 -62.4375 284.875 C-63.54319336 285.4105249 -64.64888672 285.9460498 -65.78808594 286.49780273 C-68.86294367 287.99006816 -71.93173453 289.49423926 -75 291 C-76.38493652 291.66841919 -76.38493652 291.66841919 -77.79785156 292.3503418 C-101.02817547 303.68627231 -117.30736701 323.93004841 -126 348 C-127.15275043 351.63939779 -128.17106418 355.27373611 -129 359 C-138.57898022 350.31078426 -144.00422673 333.63694198 -148.875 321.875 C-149.22651123 321.05330322 -149.57802246 320.23160645 -149.94018555 319.38500977 C-152.15401404 313.81982858 -152.15401404 313.81982858 -151.4921875 310.296875 C-144.7373106 299.89931579 -134.87435238 292.24155364 -125 285 C-124.44473633 284.59072266 -123.88947266 284.18144531 -123.31738281 283.75976562 C-117.69441591 279.63470662 -111.97416993 275.65662808 -106.2109375 271.73046875 C-104.96316528 270.8804126 -104.96316528 270.8804126 -103.69018555 270.01318359 C-102.07417801 268.91503624 -100.45599879 267.8200748 -98.83520508 266.72900391 C-85.43505095 257.64904006 -77.1866157 250.55984709 -72 235 C-71.26508543 226.92798753 -72.1089935 219.39177322 -73.6875 211.5 C-73.9493811 210.18394775 -73.9493811 210.18394775 -74.21655273 208.84130859 C-75.03202235 204.77780608 -75.85449213 200.71573578 -76.68017578 196.65429688 C-81.88661972 170.47290582 -83.8122128 144.47192124 -77.53466797 118.26855469 C-72.84272654 98.36101142 -71.91693208 80.80196665 -82.47265625 62.45703125 C-84.50856658 59.18187115 -86.67535146 56.07674072 -89 53 C-75.88753369 39.81790998 -19.84758834 -9.92379417 0 0 Z " fill="#FB90CD" transform="translate(176,36)"/>
<path d="M0 0 C0 0.66 0 1.32 0 2 C-0.66 2 -1.32 2 -2 2 C-2.23847656 2.52722656 -2.47695312 3.05445313 -2.72265625 3.59765625 C-4.0385277 6.07246036 -5.56931536 8.32289884 -7.17333984 10.61816406 C-11.89512091 17.41358942 -16.02086909 24.42865705 -19.875 31.75 C-20.32673584 32.60005615 -20.77847168 33.4501123 -21.24389648 34.32592773 C-32.38188797 55.85301614 -37.10376933 80.43627734 -30 104 C-29.78730469 104.7734375 -29.57460937 105.546875 -29.35546875 106.34375 C-28.92569078 107.90208164 -28.46780121 109.45265755 -28 111 C-41.7889054 123.87792667 -60.246487 128.70879357 -78.20629883 132.4609375 C-84.38624714 133.8477904 -87.91632595 136.24979524 -92 141 C-95.62649607 146.74902722 -95.71637733 153.40178777 -95 160 C-94.4033139 162.37144474 -93.66256862 164.58982158 -92.78515625 166.87109375 C-92.00361668 168.99019357 -91.52076371 171.04125151 -91.0625 173.25 C-89.90670013 177.32929365 -89.18545663 179.21272544 -86 182 C-84.35826249 182.31390244 -82.71169645 182.60299286 -81.0625 182.875 C-78.390625 183.59375 -78.390625 183.59375 -76 185 C-73.80946271 189.01974885 -72.74098406 193.28497056 -71.60839844 197.69140625 C-66.39372183 217.47871846 -58.18919062 236.84733965 -47 254 C-53.61530528 254.37640428 -59.63922703 252.99723558 -66.0625 251.5 C-67.20195068 251.23445312 -68.34140137 250.96890625 -69.51538086 250.6953125 C-77.17374595 248.8404151 -84.64385939 246.65589003 -92.0625 244 C-93.37069702 243.53883789 -93.37069702 243.53883789 -94.70532227 243.06835938 C-101.62519754 240.47516783 -109.45362054 237.14650869 -113.375 230.5625 C-115.97382493 224.37257152 -116.88496638 217.58400803 -118 211 C-118.29390625 209.2984375 -118.29390625 209.2984375 -118.59375 207.5625 C-127.52731111 152.91012612 -117.02986424 93.57667432 -84.62939453 48.07519531 C-82.60234258 45.33466231 -80.5132283 42.65664259 -78.38671875 39.9921875 C-76.58472117 37.7330547 -74.87182614 35.45835526 -73.171875 33.125 C-56.23914052 10.48897486 -29.44112773 -9.65855178 0 0 Z " fill="#753617" transform="translate(249,2)"/>
<path d="M0 0 C7.21993289 2.86125099 14.41098352 5.78412424 21.5625 8.8125 C23.02719727 9.41288086 23.02719727 9.41288086 24.52148438 10.02539062 C31.16825641 12.85749349 36.5301477 16.29182568 42 21 C42.63583008 21.53850586 43.27166016 22.07701172 43.92675781 22.63183594 C53.78142382 31.25099158 59.59207505 45.17223937 61 58 C61.45631975 67.89438972 60.66855978 77.76800911 59.875 87.625 C59.81131226 88.42501434 59.74762451 89.22502869 59.68200684 90.04928589 C56.63543521 127.76553047 51.59959998 165.2596818 45.40032959 202.57788086 C45.01232469 204.92543179 44.63111863 207.2739751 44.25244141 209.62304688 C43.60284212 213.64767448 42.93009224 217.66790945 42.25 221.6875 C42.0636499 222.83404053 41.8772998 223.98058105 41.68530273 225.16186523 C41.50555908 226.18481689 41.32581543 227.20776855 41.140625 228.26171875 C40.91681152 229.57595825 40.91681152 229.57595825 40.68847656 230.91674805 C40 233 40 233 37 235 C34.23708855 236.00122508 31.48889716 236.93248293 28.6875 237.8125 C27.86459473 238.07240723 27.04168945 238.33231445 26.19384766 238.60009766 C2.10250399 246 2.10250399 246 -5 246 C-4.25987065 238.99106419 -2.9259743 232.12535809 -1.58877563 225.20858765 C2.20287926 205.52076057 5.43140035 185.80364796 7.6875 165.875 C7.80697998 164.82143311 7.92645996 163.76786621 8.04956055 162.68237305 C9.55415713 148.7248156 10.16583389 134.80867415 10.203125 120.77734375 C10.20595238 120.03636507 10.20877975 119.29538639 10.21169281 118.53195381 C10.22653849 114.59934281 10.23585605 110.66676701 10.24023438 106.73413086 C10.24458497 103.5631132 10.25836466 100.39237285 10.28125 97.22143555 C10.39832457 80.60218614 10.22469468 64.07081583 8.796875 47.50390625 C8.69691223 46.20976303 8.59694946 44.91561981 8.49395752 43.58226013 C8.02630338 36.56718357 8.02630338 36.56718357 4.49584961 30.78271484 C3.67221924 30.19441895 2.84858887 29.60612305 2 29 C-3.47293344 22.58814344 -6.58515095 16.79052641 -6.46875 8.19140625 C-5.62227239 4.23412344 -3.06322694 2.48887189 0 0 Z " fill="#FEDC40" transform="translate(304,263)"/>
<path d="M0 0 C1.879616 3.759232 -0.8633714 8.3933167 -2.08984375 12.2265625 C-5.38468244 26.21153205 -2.34513045 42.15772733 -1 56.25 C1.37386542 81.29507679 1.37386542 81.29507679 1 91 C-0.22074219 91.09796875 -1.44148438 91.1959375 -2.69921875 91.296875 C-17.76306134 92.61651487 -33.35864808 94.70412069 -44.375 106.1875 C-51.21732337 115.34719478 -51.63628318 125.63713432 -51.75 136.6875 C-51.77823211 138.08271807 -51.80816932 139.47790271 -51.83984375 140.87304688 C-51.90992764 144.24875447 -51.96293046 147.62379589 -52 151 C-55.44711553 151 -55.72326949 150.67657862 -58.1171875 148.4296875 C-59.01751709 147.59087036 -59.01751709 147.59087036 -59.93603516 146.73510742 C-60.57589355 146.12127197 -61.21575195 145.50743652 -61.875 144.875 C-62.87539307 143.92427612 -62.87539307 143.92427612 -63.89599609 142.9543457 C-75.20947971 132.09871847 -85.29482235 120.62938619 -94.55029297 107.96728516 C-95.88363169 106.15791442 -97.25051468 104.38056555 -98.62890625 102.60546875 C-104.58542047 94.53568688 -104.58542047 94.53568688 -104.375 89.1875 C-100.55920004 70.81295557 -89.95621013 55.11567118 -77 42 C-76.43023437 41.35804688 -75.86046875 40.71609375 -75.2734375 40.0546875 C-64.35349356 28.01474931 -48.68858214 21.84555312 -34.16796875 15.42626953 C-27.93729437 12.62112158 -21.80281549 9.61134435 -15.66210938 6.61547852 C-10.51511325 4.12549317 -5.38902153 1.91385811 0 0 Z " fill="#FEB232" transform="translate(151,303)"/>
<path d="M0 0 C0.33 0 0.66 0 1 0 C1.01030746 0.61513458 1.02061493 1.23026917 1.03123474 1.86404419 C1.14117635 8.38794714 1.2555703 14.9117622 1.37231445 21.43554688 C1.41507524 23.85577519 1.45677813 26.27602247 1.49731445 28.69628906 C2.00749168 59.93760537 2.00749168 59.93760537 4.5625 91.0625 C4.6424823 91.76637848 4.7224646 92.47025696 4.80487061 93.19546509 C6.83243524 110.7862007 9.99528322 128.19651617 13.1953125 145.60546875 C13.34730606 146.43740753 13.49929962 147.26934631 13.65589905 148.12649536 C14.35728629 151.88355518 15.13047268 155.58041106 16.11279297 159.2746582 C16.85440756 162.38866399 17.19789439 164.83368982 17 168 C1.6362457 164.96683986 -13.17445381 161.04685481 -28 156 C-28.10054687 154.86433594 -28.20109375 153.72867188 -28.3046875 152.55859375 C-28.7995658 148.11589706 -29.55749224 143.73871364 -30.3828125 139.34765625 C-30.5183403 138.62556976 -30.6538681 137.90348328 -30.79350281 137.15951538 C-31.08497536 135.60836169 -31.37653847 134.057225 -31.66818237 132.50610352 C-34.86641891 115.39813399 -37.52638537 98.23562626 -39.9375 81 C-40.09261047 79.90229279 -40.24772095 78.80458557 -40.40753174 77.6736145 C-40.84953352 74.53323513 -41.28385585 71.39190802 -41.71484375 68.25 C-41.84574905 67.31614975 -41.97665436 66.3822995 -42.11152649 65.42015076 C-43.46792386 55.3338767 -43.27451824 49.29941585 -37 41 C-30.39029951 33.8561823 -23.40217902 30.3876755 -13.61328125 29.875 C-8.27155069 29.74724561 -5.32127351 30.22624216 0 32 C0 21.44 0 10.88 0 0 Z " fill="#FEDC40" transform="translate(196,341)"/>
<path d="M0 0 C1.62049008 2.13248542 3.19625033 4.28194335 4.7265625 6.48046875 C15.09071767 21.2589863 27.47382962 29.30132307 43.3203125 37.45703125 C45.69138764 38.82230046 47.35154557 39.83709502 49 42 C49.98265409 49.12424218 47.85563878 53.13344616 44 59 C43.608125 59.61004883 43.21625 60.22009766 42.8125 60.84863281 C29.82145998 80.98281165 29.82145998 80.98281165 20.18359375 84.56640625 C12.1741809 86.15682633 5.18967312 85.80485285 -2 82 C-2.02345187 74.37473948 -2.04107878 66.74948282 -2.05181217 59.12419415 C-2.05697069 55.58123667 -2.06393572 52.03830434 -2.07543945 48.49536133 C-2.16104695 21.3789066 -2.16104695 21.3789066 -1.55859375 9.64453125 C-1.51960464 8.87678879 -1.48061554 8.10904633 -1.44044495 7.31803894 C-1.13403236 2.26806472 -1.13403236 2.26806472 0 0 Z " fill="#DDEDFE" transform="translate(199,312)"/>
<path d="M0 0 C5.4177887 5.4177887 3.12072139 19.92073732 3.13894653 27.26701355 C3.1369223 28.58526627 3.13489807 29.90351898 3.1328125 31.26171875 C3.13348844 32.6694185 3.13446086 34.07711814 3.13571167 35.4848175 C3.1371697 38.40159238 3.13509243 41.31833621 3.13037109 44.23510742 C3.12461608 47.9718577 3.12800075 51.70853703 3.13394356 55.44528484 C3.1375511 58.33714843 3.1364107 61.22899506 3.13381577 64.12085915 C3.13315004 65.49996766 3.13396251 66.87907773 3.13629532 68.25818443 C3.13883129 70.17431992 3.13428156 72.09046086 3.12939453 74.0065918 C3.12859894 75.09465622 3.12780334 76.18272064 3.12698364 77.30375671 C3 80 3 80 2 83 C-4.43685956 86.4822355 -12.96427099 86.13729162 -19.85546875 84.1953125 C-32.41423528 78.5487353 -40.25656693 64.46550052 -47 53 C-48.21448067 49.356558 -49.08461677 45.72453305 -48 42 C-43.87136132 37.90941329 -39.48638904 35.58772043 -34.25 33.1875 C-27.39565861 29.89515853 -21.63218426 26.16537259 -16 21 C-15.29488281 20.37480469 -14.58976562 19.74960937 -13.86328125 19.10546875 C-8.01520552 13.63612554 -3.57908717 7.15817434 0 0 Z " fill="#DEEDFE" transform="translate(312,312)"/>
<path d="M0 0 C2.23840332 2.23840332 2.76031775 3.79493496 3.8125 6.75 C6.30820166 13.11770937 9.43910201 17.89260287 15.6875 21.25390625 C20.91051592 22.9390347 26.55263797 22.84889426 32 23 C31.46879173 33.49594265 30.4178445 44.32723716 24 53 C18.66131753 57.15824223 12.67749441 59.46045753 6.3125 61.5625 C5.43110352 61.8605957 4.54970703 62.15869141 3.64160156 62.46582031 C1.09779909 63.32120066 -1.45063685 64.16137305 -4 65 C-5.19753906 65.40605469 -6.39507812 65.81210938 -7.62890625 66.23046875 C-13.49927229 68.14807267 -19.38006259 69.58500176 -25.4375 70.75 C-26.10040039 70.87793945 -26.76330078 71.00587891 -27.44628906 71.13769531 C-31.34309557 71.83955544 -35.04405403 72.12228581 -39 72 C-38.52691406 71.20980469 -38.05382812 70.41960937 -37.56640625 69.60546875 C-28.38031662 53.93718721 -21.3403234 38.07129248 -15.82421875 20.75390625 C-15.52402832 19.82046387 -15.22383789 18.88702148 -14.91455078 17.92529297 C-14.26748664 15.85558593 -13.65453467 13.77506988 -13.06591797 11.68798828 C-12.7463916 10.60888184 -12.42686523 9.52977539 -12.09765625 8.41796875 C-11.82058838 7.43465576 -11.54352051 6.45134277 -11.25805664 5.43823242 C-10 3 -10 3 -7.4128418 1.56860352 C-4.92806189 0.8047393 -2.5801926 0.2954419 0 0 Z " fill="#763717" transform="translate(349,184)"/>
<path d="M0 0 C1.03125 0.804375 2.0625 1.60875 3.125 2.4375 C15.10899918 11.37256653 27.19108117 18.86734409 42 22 C41.45439578 28.37595631 40.34169765 34.10488438 38.375 40.1875 C38.10993652 41.01048584 37.84487305 41.83347168 37.57177734 42.68139648 C33.74498795 54.16957445 28.69461543 65.32428591 20 74 C17 75 17 75 14.46875 73.734375 C2.35786155 65.63920219 -7.41255102 56.17489796 -14 43 C-13.98835317 40.53960664 -13.90424161 38.13900683 -13.75 35.6875 C-13.68296875 34.37136719 -13.6159375 33.05523437 -13.546875 31.69921875 C-12.77208636 26.45832703 -10.54364096 23.40857499 -7 19.625 C-1.84924329 13.69460021 -0.50236859 7.63946723 0 0 Z " fill="#FB9460" transform="translate(213,269)"/>
<path d="M0 0 C4.24983762 1.0784229 7.12018157 3.74055344 10.33984375 6.59375 C11.55414063 7.51220703 11.55414063 7.51220703 12.79296875 8.44921875 C20.68639061 15.09567366 27.95222428 25.7430741 29.7734375 36.046875 C29.14012232 39.76688851 26.90084766 41.81640972 24.33984375 44.40625 C23.83582031 44.93323486 23.33179688 45.46021973 22.8125 46.00317383 C21.79741195 47.06007292 20.77664265 48.1115477 19.75 49.15722656 C18.55864041 50.37086227 17.38470312 51.60156382 16.21484375 52.8359375 C10.99491512 58.25161346 5.22608497 62.9247768 -0.66015625 67.59375 C-1.52898437 68.295 -2.3978125 68.99625 -3.29296875 69.71875 C-4.09476562 70.358125 -4.8965625 70.9975 -5.72265625 71.65625 C-6.43550781 72.22472656 -7.14835937 72.79320312 -7.8828125 73.37890625 C-9.66015625 74.59375 -9.66015625 74.59375 -11.66015625 74.59375 C-11.77617187 65.8313872 -11.86493249 57.06929008 -11.91921711 48.30632591 C-11.94527551 44.23698104 -11.9806033 40.16816286 -12.03735352 36.09912109 C-12.09180976 32.16982497 -12.12160505 28.24103438 -12.13454247 24.31138992 C-12.14375815 22.81466339 -12.16175488 21.31796352 -12.18880653 19.82145309 C-12.41792414 6.61755647 -12.41792414 6.61755647 -9.265625 2.67724609 C-5.84066222 -0.06156878 -4.23488945 -0.2818562 0 0 Z " fill="#FFB332" transform="translate(411.66015625,390.40625)"/>
<path d="M0 0 C7.08505572 1.72206215 12.13508225 4.50698254 17 10 C22.01914611 18.31296074 20.25743665 26.7613913 18.25 35.75 C18.09329834 36.47106934 17.93659668 37.19213867 17.77514648 37.93505859 C16.4193314 43.55451258 14.36262126 48.14821577 9.6875 51.8125 C6.46530655 53.2362599 3.4922606 53.65762151 0 54 C0.16226074 52.69426025 0.32452148 51.38852051 0.49169922 50.04321289 C1.00031612 45.4481087 1.14548702 40.92814104 1.1328125 36.30859375 C1.13376923 35.519048 1.13472595 34.72950226 1.13571167 33.91603088 C1.13638661 32.26148396 1.13458071 30.60693428 1.13037109 28.95239258 C1.12500578 26.44020574 1.13034328 23.92819707 1.13671875 21.41601562 C1.13605799 19.79687461 1.13477686 18.17773371 1.1328125 16.55859375 C1.13483673 15.81878769 1.13686096 15.07898163 1.13894653 14.3167572 C1.11744244 9.46552375 0.68171871 4.8041875 0 0 Z " fill="#FDA97A" transform="translate(339,133)"/>
<path d="M0 0 C-0.16226074 0.81823242 -0.32452148 1.63646484 -0.49169922 2.47949219 C-1.06469765 6.44809801 -1.14364907 10.32916058 -1.1328125 14.328125 C-1.13376923 15.11717224 -1.13472595 15.90621948 -1.13571167 16.71917725 C-1.13638955 18.38326091 -1.13456273 20.04734726 -1.13037109 21.71142578 C-1.12504601 24.22825227 -1.13031463 26.74489797 -1.13671875 29.26171875 C-1.13968742 37.2426897 -1.01957999 45.06993344 0 53 C-6.5027492 52.6636509 -9.42563427 51.6832792 -14 47 C-16.03711491 43.64958025 -16.74109342 40.1852944 -17.5625 36.375 C-18.42572431 32.06261619 -18.42572431 32.06261619 -20 28 C-20.57513588 21.43017864 -20.71525166 14.67671993 -17 9 C-11.59920582 3.34202515 -7.94662835 -0.17275279 0 0 Z " fill="#FA935F" transform="translate(173,134)"/>
<path d="M0 0 C1.62049008 2.13248542 3.19625033 4.28194335 4.7265625 6.48046875 C11.56635558 16.23350703 18.55912695 23.58369095 28.91015625 29.58984375 C29.59980469 30.05519531 30.28945312 30.52054687 31 31 C31 31.66 31 32.32 31 33 C30.17757812 33.20753906 29.35515625 33.41507812 28.5078125 33.62890625 C16.48258822 36.94764598 7.68730582 42.24711622 1 53 C0.29345426 54.65015616 -0.38465253 56.31371126 -1 58 C-1.33 58 -1.66 58 -2 58 C-2.18993163 20.95748818 -2.18993163 20.95748818 -1.5625 9.3125 C-1.50364624 8.19524536 -1.50364624 8.19524536 -1.44360352 7.05541992 C-1.14068276 2.28136551 -1.14068276 2.28136551 0 0 Z " fill="#D3DBF8" transform="translate(199,312)"/>
<path d="M0 0 C3 1 3 1 4.31640625 3.58984375 C7.44704816 12.00037704 10.17521037 19.95277365 10 29 C3.95015508 26.15301415 0.39756696 20.98571123 -2.375 15.0625 C-3.18934672 11.07220106 -3.71548996 7.03905622 -3 3 C-1.48046875 1.23046875 -1.48046875 1.23046875 0 0 Z " fill="#FFB433" transform="translate(301,266)"/>
<path d="M0 0 C1.32 0.66 2.64 1.32 4 2 C4.74612985 9.7929118 3.49796836 15.5202535 -1 22 C-3.21707916 24.29953252 -5.42504235 26.08140411 -8 28 C-7.69480114 25.66014204 -7.35938944 23.33185243 -7 21 C-6.88914063 20.23945313 -6.77828125 19.47890625 -6.6640625 18.6953125 C-5.51567636 11.91333395 -3.05765919 6.13865929 0 0 Z " fill="#FEB233" transform="translate(209,266)"/>
</svg>
